<?xml version="1.0" encoding="UTF-8"?><svg id="_レイヤー_1" xmlns="http://www.w3.org/2000/svg" viewBox="0 0 768 1250"><defs><style>.cls-1{font-size:60px;}.cls-1,.cls-2,.cls-3{font-family:KozGoPr6N-Medium-83pv-RKSJ-H, 'Kozuka Gothic Pr6N';font-weight:500;}.cls-2,.cls-4{font-size:42px;}.cls-3{font-size:36px;}.cls-5{letter-spacing:-.5em;}.cls-4{font-family:KozGoPr6N-Bold-83pv-RKSJ-H, 'Kozuka Gothic Pr6N';font-weight:700;}</style></defs><text class="cls-2" transform="translate(464.21 680.96)"><tspan x="0" y="0">学生</tspan></text><text class="cls-4" transform="translate(336.79 679.71)"><tspan x="0" y="0">職業</tspan></text><text class="cls-2" transform="translate(173.21 686.29)"><tspan x="0" y="0">22</tspan></text><text class="cls-4" transform="translate(41.58 685.04)"><tspan x="0" y="0">年齢</tspan></text><text class="cls-2" transform="translate(173.21 791.96)"><tspan x="0" y="0">男性</tspan></text><text class="cls-4" transform="translate(41.58 790.71)"><tspan x="0" y="0">性別</tspan></text><text class="cls-2" transform="translate(464.21 790.96)"><tspan x="0" y="0">ドライブ、お酒</tspan></text><text class="cls-4" transform="translate(334.58 790.71)"><tspan x="0" y="0">趣味</tspan></text><text class="cls-1" transform="translate(193.21 550.62)"><tspan x="0" y="0">松田力也</tspan></text><text class="cls-4" transform="translate(48.58 550.38)"><tspan x="0" y="0">氏名</tspan></text><text class="cls-4" transform="translate(48.58 934.38)"><tspan x="0" y="0">紹介文</tspan></text><text class="cls-3" transform="translate(48.58 1012.68)"><tspan x="0" y="0">大学でプログラミングとデザインを学んで</tspan><tspan x="0" y="63">います。ものづくりに関わる仕事に就くた</tspan><tspan x="0" y="126">めに就職活動を行っています</tspan><tspan class="cls-5" x="468" y="126">。</tspan></text><path d="m604.26,261.98c1.3-17.8,1.68-35.63,1.74-53.48-.08-20.72-.58-41.4-2.45-62.03,2.75-.28,5.32-1.45,6.45-4.47,3-8,0-13.01,0-13.01,0,0-198.44-39.33-226-40.99-41.5-2.5-112,3-133,6s-67,1-77,2-23,4-23,10,32,8,55,12,81,19,81,19l-34,118s50.93,45.97,118.5,51.5c55.03,4.5,127.5-48.5,127.5-48.5,0,0-14-91-27-109l122-4s3,1.15,6.45,1.46c-1.87,20.64-2.37,41.32-2.45,62.04.06,18.25.46,36.46,1.83,54.65,0,0-22.83,22.85-24.83,73.85s20,85,20,85c0,0,22-47,22-85s-3.49-71.03-12.74-75.02Zm-346.26-4.98l11.44-43.34s-1.94,25.84-2.28,36.23c-.34,10.4,4.84,14.1,4.84,14.1l-14-7Zm134.5-152.5c1.5,1.5-.5,4.5-1.5,3.5-.71-.71-.5-2.5-7-4.89s-14.5-.61-14.5-.61c14-5,21.74.74,23,2Zm-9.5,8.5c6.87-.86,7.73-1.48,8.58-2.01,1.2-.75,4.42,2.01.42,4.01-1.59.79-16,4-27-4,0,0,11.35,2.83,18,2Zm-223.68-12.81l14.16-.19c.73,0,72.93-1.03,83.63-3.95.8-.22,1.62.25,1.84,1.05.22.8-.25,1.62-1.05,1.84-8.17,2.23-48.66,3.35-70.48,3.81l186.38,37.28c.81.16,1.34.95,1.18,1.76-.14.71-.77,1.21-1.47,1.21-.1,0-.2,0-.3-.03l-213.88-42.78Zm210.68,202.81s5-37,6-53.66,0-59.34,0-59.34l2.5-4.5s3,39,.64,61-1.14,47.5-1.14,47.5l4,5-12,4Zm39.5-144.5c-9,1-30,6-30,6l-2,13s-4-6.16-4-8.08,4-4.23,2.5-8.08-19.5-6.85-19.5-9.85c0,0,24,5,31,5s64-5,64-5c0,0-33,6-42,7Zm61.76,11c2.72,5.24,4.19,11.1,4.24,17-2.73-5.24-4.18-11.1-4.24-17Zm1.24-13c4,2,7,26,7,26l-8.24-18,1.24-8Zm43.5-20.5c-4.92,0-125.01,6.42-126.22,6.48l-.11-2c4.95-.26,121.36-6.49,126.33-6.49v2Zm70,1c-.06,0-.12,0-.18-.02-4.61-.84-14.3-1.87-25.52-3.06-15.21-1.61-34.15-3.62-47.47-5.94-22.72-3.95-113.06-16.87-113.97-17-.55-.08-.93-.58-.85-1.13.08-.55.58-.93,1.13-.85.91.13,91.28,13.05,114.03,17,13.26,2.31,32.15,4.31,47.34,5.92,11.26,1.2,20.99,2.23,25.67,3.08.54.1.9.62.81,1.16-.09.48-.51.82-.98.82Z"/></svg>