<?xml version="1.0" encoding="UTF-8"?><svg id="_レイヤー_2" xmlns="http://www.w3.org/2000/svg" viewBox="0 0 480 403.72"><g id="_レイヤー_1-2"><path d="m475.5,388.16c-2.07,0-16.25-.34-20.4-.69.35-3.46.69-5.88.69-8.65,0-6.22-2.07-11.07-2.07-16.6,0-6.91,1.38-13.83,1.38-22.82,0-7.95-1.04-24.55-1.04-31.47,0-7.26,2.07-11.76,2.07-16.94,0-5.53-2.77-10.37-2.77-16.25,0-6.91,1.38-12.79,1.38-18.67,0-7.95-4.5-13.14-4.5-19.71,0-7.61,3.46-13.14,3.81-19.02.69-8.3,1.38-23.86,1.38-38.38,0-8.99-.35-17.63-1.04-23.51,3.8-.35,14.18-.35,16.25-.35,5.53,0,8.3-5.19,8.3-9.68,0-4.15-1.73-5.53-4.84-5.53-4.84,0-25.93-.35-32.5-.35-5.88,0-10.72,2.08-15.21,2.42-5.88,0-10.72-1.73-15.91-1.73-8.64,0-16.25.69-23.86.69-4.84,0-9.68.69-9.68,2.77,0,3.8.35,11.41,5.19,11.41,3.8,0,12.1.35,14.52.35-3.46,5.53-5.53,8.3-8.3,16.94-3.11,10.03-6.92,11.76-11.41,22.13-5.19,10.03-8.65,17.29-14.18,24.2-4.84,7.95-7.61,14.87-8.65,24.55-1.38,10.03-10.03,8.3-12.45,14.18-2.42,5.88-4.84,16.94-10.37,25.93-2.77,5.53-11.76,19.71-12.1,24.9-.69,8.99-8.3,13.14-12.1,21.44-3.46,8.99-6.22,15.56-7.95,15.56-1.38,0-5.19-4.15-8.65-14.87-2.07-4.84-8.29-10.37-8.29-14.18,0-4.49-12.8-25.59-15.56-28.7-3.46-3.46-8.3-16.94-10.37-21.44-3.11-5.88-10.03-11.07-10.38-16.6-1.38-8.65-12.79-23.17-16.94-32.16-1.82-3.87-4.48-7.31-7.4-10.55-7.47-10.54-13.38-13.3-21.29-27.4-3.54-6.72-12.03-17.69-17.69-23.71,5.31-1.42,12.03-3.89,16.63-5.66,8.49-3.19,37.15-17.34,47.41-41.4,5.66-13.45,6.01-27.25,6.01-40.34,0-21.58-3.89-25.12-9.9-36.8-2.83-6.37-20.17-16.98-29.37-18.75-8.49-1.42-9.91-8.49-21.94-8.49-2.48,0-14.51-2.83-16.98-2.83-11.32,0-30.78-.71-38.92-1.42-11.32,0-41.04,1.77-45.64,1.77-4.25,0-12.74,0-19.82,1.06-5.66,0-10.26-1.06-14.86-1.06-6.37,0-23,1.77-30.43,1.77-3.18,0-5.66-.71-8.49-.71-3.89,0-8.14.36-11.33.36C.36,3.18,0,10.61,0,14.15c0,2.12,4.6,2.83,8.84,2.83,4.6,0,8.85-.35,12.74-.35,4.25,0,6.37,0,6.37,2.83,0,4.6-.36,7.78-.36,12.74,0,18.4,2.48,32.2,2.48,46,0,4.95-1.06,9.55-1.06,14.15,0,6.72-1.06,13.45-1.06,20.17,0,5.31,2.12,9.55,2.12,14.15,0,9.55-2.83,20.52-2.83,26.89,0,7.78.71,6.02.71,16.99,0,10.26,1.77,3.89,1.77,17.69,0,9.2-1.77,24.06-1.77,35.38,0,5.31.36,9.2.36,12.74,0,2.83,0,5.31-1.06,8.49-1.07,4.25-1.07,8.14-1.07,11.32-14.51,0-17.69,0-20.87-.35-4.95,0-5.31,7.08-5.31,10.97,0,2.12,4.6,2.83,8.84,2.83,3.19,0,6.37-.36,7.43-.36,9.9,0,15.92,1.06,21.94,1.06,4.25,0,9.2-1.42,12.74-1.42,4.95,0,9.2,2.12,14.86,2.12s18.04-.36,22.29-.36c3.89,0,4.25-2.83,4.25-5.66,0-4.25-2.48-9.2-7.08-9.2h-16.63c-.36-4.25-1.07-6.37-1.07-13.8,0-33.61-.71-35.38-.71-38.57,0-12.74,1.77-23.71,1.77-35.03,0-4.95.71-8.14,4.95-8.14,3.89,0,11.68.71,22.29.71,11.68,0,19.11-1.42,37.51-1.42l18.4,21.23c6.02,7.43,13.09,10.61,17.34,16.63,2.48,3.54,4.25,11.32,6.72,14.51,3.89,5.26,7.63,9.94,11.99,15.54.71,1.68,1.4,3.36,2.04,5.06,3.8,10.72,8.3,4.15,10.72,11.07,4.15,7.26,6.92,11.06,8.65,19.02,1.38,7.95,10.03,14.18,13.48,21.44,3.11,6.57,1.73,7.61,7.61,13.14,3.81,5.88,4.15,10.03,5.88,16.94,1.04,7.26,8.99,17.64,12.45,25.24,4.15,8.3,10.37,7.95,12.45,17.29,2.07,9.68,7.26,18.33,10.03,23.86,2.07,6.22,7.61,13.83,9.34,16.6.69,1.04,4.15,6.57,14.87,6.57,9.33,0,10.03-3.46,13.48-8.3,5.53-8.65,4.5-7.95,9.34-17.63,3.46-9.34,5.53-14.18,8.99-18.67,4.15-4.15,20.4-34.23,27.66-49.1,5.19-10.72,5.53-19.02,10.72-23.86,5.53-4.49,6.57-11.76,9.33-16.94,3.46-5.88,9.34-16.6,13.83-22.48,3.11-6.22,5.19-12.79,11.06-20.75,4.84-7.61,15.91-27.32,15.91-27.32.69.69,2.42,4.49,2.42,9.68l-2.42,38.04c0,9.34-.35,15.56-.35,23.17,0,1.38,0,2.77-1.04,30.78,0,4.15,3.46,7.61,4.15,11.76,0,.69-3.46,5.88-3.46,6.57-2.42,18.33-2.42,18.67-2.42,19.36,0,7.61,1.73,19.02,1.73,37.69,0,5.53-1.38,7.95-2.07,13.49h-16.25c-2.42,0-5.19.34-5.19,2.42,0,3.46.35,11.06,4.84,11.06h2.42c2.42,0,4.14.34,6.57.34,3.46,0,5.53-.69,7.61-.69,6.57,0,18.33,1.38,23.51,1.38,5.88,0,31.46-1.04,37-1.04,4.84,0,7.26-5.19,7.26-9.34s-1.04-5.19-4.5-5.19ZM127.73,129.5c-10.26,0-22.29.71-33.26.71-9.55,0-18.04-.35-24.77-2.48,0-15.57-2.13-26.18-2.13-36.8,0-2.12.36-4.24.36-6.37,0-9.91,1.77-16.28,1.77-18.05s-1.06-6.02-1.06-10.61c0-3.18,1.41-18.05,1.77-18.05,12.03-3.54,19.11-3.54,41.04-3.54,13.1,0,47.42,1.06,62.98,1.06,6.72,0,10.26.35,14.86,2.83,8.14,3.89,9.91,0,14.51,6.72,4.95,6.02,9.91,16.99,10.26,27.95,0,9.91-5.31,25.83-11.32,33.62-6.02,7.78-14.51,9.91-25.83,15.57-13.09,6.72-32.2,7.43-49.18,7.43Z"/></g></svg>