<svg width="200" height="200" viewBox="0 0 200 200" fill="none" xmlns="http://www.w3.org/2000/svg">
<path fill-rule="evenodd" clip-rule="evenodd" d="M20 26.5574L26.5574 20H69.8361C79.8935 20 88.3514 25.4659 94.1125 32.7278C99.8733 39.9893 103.412 49.5689 103.605 59.2131C103.8 68.9515 100.563 79.0591 92.3798 86.683C86.7459 91.932 79.1398 95.6601 69.5191 97.4623L92.2607 121.401L168.244 22.5608L180 26.5574V180H166.885V45.8464L97.9856 135.472L88.0328 135.992L50.6557 96.6475L55.4098 85.5738C69.6919 85.5738 78.3949 81.7878 83.4399 77.0875C88.4536 72.4163 90.6262 66.1305 90.4931 59.4754C90.3581 52.7262 87.8316 45.9123 83.8383 40.8787C79.8454 35.8456 74.8606 33.1148 69.8361 33.1148H33.1148V180H20V26.5574Z" fill="black"/>
</svg>
