<svg width="40" height="40" viewBox="0 0 40 40" fill="none" xmlns="http://www.w3.org/2000/svg">
<path d="M14.5274 40L13.7313 33.6C13.3002 33.4333 12.8939 33.2333 12.5124 33C12.131 32.7667 11.7579 32.5167 11.393 32.25L5.47264 34.75L0 25.25L5.12438 21.35C5.09121 21.1167 5.07463 20.8917 5.07463 20.675V19.325C5.07463 19.1083 5.09121 18.8833 5.12438 18.65L0 14.75L5.47264 5.25L11.393 7.75C11.7579 7.48333 12.1393 7.23333 12.5373 7C12.9353 6.76667 13.3333 6.56667 13.7313 6.4L14.5274 0H25.4726L26.2687 6.4C26.6998 6.56667 27.1061 6.76667 27.4876 7C27.869 7.23333 28.2421 7.48333 28.607 7.75L34.5274 5.25L40 14.75L34.8756 18.65C34.9088 18.8833 34.9254 19.1083 34.9254 19.325V20.675C34.9254 20.8917 34.8922 21.1167 34.8259 21.35L39.9502 25.25L34.4776 34.75L28.607 32.25C28.2421 32.5167 27.8607 32.7667 27.4627 33C27.0647 33.2333 26.6667 33.4333 26.2687 33.6L25.4726 40H14.5274ZM18.01 36H21.9403L22.6368 30.7C23.665 30.4333 24.6186 30.0417 25.4975 29.525C26.3765 29.0083 27.1808 28.3833 27.9104 27.65L32.8358 29.7L34.7761 26.3L30.4975 23.05C30.6634 22.5833 30.7794 22.0917 30.8458 21.575C30.9121 21.0583 30.9453 20.5333 30.9453 20C30.9453 19.4667 30.9121 18.9417 30.8458 18.425C30.7794 17.9083 30.6634 17.4167 30.4975 16.95L34.7761 13.7L32.8358 10.3L27.9104 12.4C27.1808 11.6333 26.3765 10.9917 25.4975 10.475C24.6186 9.95833 23.665 9.56667 22.6368 9.3L21.9901 4H18.0597L17.3632 9.3C16.335 9.56667 15.3814 9.95833 14.5025 10.475C13.6235 10.9917 12.8192 11.6167 12.0896 12.35L7.16418 10.3L5.22388 13.7L9.50249 16.9C9.33665 17.4 9.22056 17.9 9.15423 18.4C9.08789 18.9 9.05473 19.4333 9.05473 20C9.05473 20.5333 9.08789 21.05 9.15423 21.55C9.22056 22.05 9.33665 22.55 9.50249 23.05L5.22388 26.3L7.16418 29.7L12.0896 27.6C12.8192 28.3667 13.6235 29.0083 14.5025 29.525C15.3814 30.0417 16.335 30.4333 17.3632 30.7L18.01 36ZM20.0995 27C22.0232 27 23.665 26.3167 25.0249 24.95C26.3847 23.5833 27.0647 21.9333 27.0647 20C27.0647 18.0667 26.3847 16.4167 25.0249 15.05C23.665 13.6833 22.0232 13 20.0995 13C18.1426 13 16.4925 13.6833 15.1493 15.05C13.806 16.4167 13.1343 18.0667 13.1343 20C13.1343 21.9333 13.806 23.5833 15.1493 24.95C16.4925 26.3167 18.1426 27 20.0995 27Z" fill="#617A9E"/>
</svg>
