<svg width="160" height="160" viewBox="0 0 160 160" fill="none" xmlns="http://www.w3.org/2000/svg">
<path d="M148.087 27.472C148.087 26.6153 147.541 25.8538 146.73 25.5782C145.919 25.3027 145.022 25.5744 144.501 26.2538L76.9682 114.193C76.0835 115.345 74.7424 116.05 73.2984 116.124C71.8545 116.199 70.4487 115.637 69.451 114.583L32.1839 75.2057C30.8182 73.7627 30.4391 71.6401 31.2231 69.8092C32.0066 67.9793 33.7987 66.7978 35.7764 66.7978C48.8464 66.7978 57.4886 63.0469 62.9227 57.9972C68.3804 52.9257 71.0723 46.1113 71.4482 39.1093C71.8269 32.0532 69.8313 25.0749 66.246 19.9743C62.6927 14.9195 57.806 11.9568 52.1739 11.9568H13.913C12.8085 11.9568 11.913 12.8522 11.913 13.9568V153.022C11.913 155.777 9.68808 158 6.95652 158C4.22497 158 2 155.777 2 153.022V6.9786C2 4.22337 4.22497 2.00043 6.95652 2.00043H52.1739C61.6894 2.00042 69.3516 7.12967 74.3441 14.232C79.2988 21.2805 81.8377 30.5015 81.3469 39.6453C80.853 48.8446 77.2705 58.2287 69.6549 65.3054C64.6601 69.9469 58.1441 73.4026 50.0544 75.2467C49.3542 75.4063 48.7933 75.929 48.5849 76.6163C48.3765 77.3036 48.5526 78.0498 49.0463 78.5714L71.0399 101.81C71.4424 102.235 72.0108 102.463 72.5955 102.433C73.1801 102.403 73.7222 102.118 74.0788 101.654L149.119 3.93824C150.415 2.25078 152.634 1.58061 154.639 2.26552C156.646 2.9508 158 4.84368 158 6.9786V153.022C158 155.777 155.775 158 153.043 158C150.312 158 148.087 155.777 148.087 153.022V27.472Z" stroke="white" stroke-width="4" stroke-linecap="round" stroke-linejoin="round"/>
</svg>
