<svg width="40" height="40" viewBox="0 0 40 40" fill="none" xmlns="http://www.w3.org/2000/svg">
<path fill-rule="evenodd" clip-rule="evenodd" d="M22.8571 0H17.1429V1.90479H15.2381V5.71429H11.4286V3.80951H5.71429V5.71429H3.80951V11.4286H5.71429V15.2381H1.90475V17.1429H0V22.8571H1.90475V24.7619H5.71429V28.5714H3.80951V34.2857H5.71429V36.1905H11.4286V34.2857H15.2381V38.0952H17.1429V40H22.8571V38.0952H24.7619V34.2857H28.5714L28.5714 36.1905H34.2857V34.2857H36.1905V28.5714H34.2857V24.7619H38.0952V22.8571H40V17.1429H38.0952V15.2381H34.2857V11.4286H36.1905V5.71429H34.2857V3.80951H28.5714V5.71429H24.7619V1.90479H22.8571V0ZM22.8571 1.90479V5.71429H24.7619V7.61902H28.5714V5.71429H34.2857V11.4286H32.381V15.2381H34.2857V17.1429H38.0952V22.8571H34.2857V24.7619H32.381V28.5714H34.2857V34.2857H28.5714V32.381H24.7619V34.2857H22.8571V38.0952H17.1429V34.2857H15.2381V32.381H11.4286V34.2857H5.71429V28.5714H7.61905V24.7619H5.71429V22.8571H1.90475V17.1429H5.71429V15.2381H7.61905V11.4286H5.71429V5.71429H11.4286V7.61902H15.2381V5.71429H17.1429V1.90479H22.8571ZM17 15H23V17H17V15ZM17 23H15V17H17V23ZM23 23V25H17V23H23ZM23 23H25V17H23V23Z" fill="white"/>
</svg>
