<svg width="40" height="40" viewBox="0 0 40 40" fill="none" xmlns="http://www.w3.org/2000/svg">
<path d="M14.4756 33.5074L14.4202 33.0622L14.0017 32.9004C13.6112 32.7495 13.2455 32.5693 12.9038 32.3602C12.5401 32.1377 12.184 31.8992 11.8356 31.6445L11.4926 31.3938L11.1013 31.5591L5.7916 33.8012L0.979189 25.4473L5.57859 21.9468L5.92886 21.6802L5.86691 21.2445C5.83829 21.0431 5.82463 20.8534 5.82463 20.675V19.325C5.82463 19.1466 5.83829 18.9569 5.86691 18.7555L5.92886 18.3198L5.57859 18.0532L0.979188 14.5527L5.7916 6.19881L11.1013 8.44093L11.4926 8.60618L11.8356 8.3555C12.1797 8.10404 12.5399 7.86785 12.9166 7.64701C13.2878 7.42943 13.6559 7.2447 14.021 7.09179L14.422 6.92391L14.4756 6.49257L15.1899 0.75H24.8101L25.5244 6.49257L25.5798 6.9378L25.9983 7.09956C26.3888 7.25052 26.7545 7.43075 27.0962 7.63978C27.4599 7.86228 27.816 8.10083 28.1644 8.3555L28.5074 8.60618L28.8987 8.44093L34.2084 6.19881L39.0208 14.5527L34.4214 18.0532L34.0711 18.3198L34.1331 18.7555C34.1617 18.9569 34.1754 19.1466 34.1754 19.325V20.675C34.1754 20.8146 34.1541 20.9704 34.1045 21.1449L33.9646 21.637L34.3717 21.9468L38.9711 25.4473L34.1597 33.7994L28.9008 31.56L28.5086 31.3929L28.1644 31.6445C27.8204 31.896 27.4601 32.1322 27.0834 32.353C26.7122 32.5706 26.3441 32.7553 25.979 32.9082L25.578 33.0761L25.5244 33.5074L24.8101 39.25H15.1899L14.4756 33.5074ZM17.2655 36.0909L17.3459 36.75H18.01H21.9403H22.5982L22.6839 36.0977L23.316 31.2881C24.2242 31.0131 25.0787 30.6412 25.8776 30.1716C26.6681 29.7069 27.4015 29.16 28.0772 28.5318L32.5476 30.3924L33.159 30.6469L33.4872 30.0717L35.4275 26.6717L35.7535 26.1006L35.2298 25.7028L31.3706 22.7714C31.4684 22.4149 31.5412 22.0478 31.5897 21.6705C31.6602 21.1214 31.6953 20.5645 31.6953 20C31.6953 19.4355 31.6602 18.8786 31.5897 18.3295C31.5412 17.9522 31.4684 17.5851 31.3706 17.2286L35.2298 14.2972L35.7535 13.8994L35.4275 13.3283L33.4872 9.92827L33.1561 9.34811L32.5417 9.61009L28.0842 11.5106C27.4076 10.8567 26.672 10.2954 25.8776 9.82843C25.0801 9.35964 24.2272 8.98822 23.3208 8.71334L22.7345 3.90915L22.6541 3.25H21.99H18.0597H17.4018L17.3161 3.90228L16.684 8.71188C15.7758 8.98691 14.9213 9.35881 14.1224 9.82843C13.3319 10.2931 12.5985 10.84 11.9228 11.4682L7.45237 9.60758L6.84101 9.35312L6.51279 9.92827L4.57249 13.3283L4.24407 13.9038L4.77469 14.3006L8.63385 17.1869C8.53471 17.557 8.4602 17.9286 8.41074 18.3014C8.33958 18.8378 8.30473 19.4043 8.30473 20C8.30473 20.5644 8.33983 21.1141 8.41074 21.6486C8.46038 22.0228 8.53525 22.3957 8.63494 22.7672L4.77022 25.7028L4.24653 26.1006L4.57249 26.6717L6.51279 30.0717L6.84387 30.6519L7.45833 30.3899L11.9158 28.4894C12.5924 29.1433 13.328 29.7046 14.1224 30.1716C14.9199 30.6404 15.7728 31.0118 16.6792 31.2867L17.2655 36.0909ZM24.4932 24.421C23.2738 25.6466 21.8232 26.25 20.0995 26.25C18.339 26.25 16.8831 25.6441 15.6841 24.4243C14.4801 23.1993 13.8843 21.7386 13.8843 20C13.8843 18.2614 14.4801 16.8007 15.6841 15.5757C16.8831 14.3559 18.339 13.75 20.0995 13.75C21.8232 13.75 23.2738 14.3534 24.4932 15.579C25.7128 16.8047 26.3147 18.2643 26.3147 20C26.3147 21.7357 25.7128 23.1953 24.4932 24.421Z" stroke="white" stroke-width="1.5"/>
</svg>
