<svg width="32" height="32" viewBox="0 0 32 32" fill="none" xmlns="http://www.w3.org/2000/svg">
<mask id="mask0_411_532" style="mask-type:alpha" maskUnits="userSpaceOnUse" x="0" y="0" width="32" height="32">
<rect width="32" height="32" fill="#D9D9D9"/>
</mask>
<g mask="url(#mask0_411_532)">
<path d="M10 23.3558H11.7027V20.0086H13.3784V16.6614H15.027V15.2847H13.3784V11.9644H11.7027V8.61718H10V5H12V8.32025H13.6486V11.6675H15.3243V14.9877H16.7027V11.6675H18.3784V8.32025H20.0541V5H22V8.61718H20.3243V11.9644H18.6757V15.2847H17V16.6614H18.6757V20.0086H20.3243V23.3558H22V27H20.0541V23.6258H18.3784V20.3055H16.7027V16.9583H15.3243V20.3055H13.6486V23.6258H12V27H10V23.3558Z" fill="white"/>
</g>
</svg>
