<svg width="160" height="160" viewBox="0 0 160 160" fill="none" xmlns="http://www.w3.org/2000/svg">
<path fill-rule="evenodd" clip-rule="evenodd" d="M155.286 0.372881C158.105 1.33572 160 3.99153 160 6.9786V153.022C160 156.876 156.885 160 153.043 160C149.201 160 146.087 156.876 146.087 153.022V27.472L78.5544 115.411C77.3141 117.026 75.4316 118.017 73.4017 118.122C71.3719 118.227 69.3978 117.436 67.9984 115.957L30.7313 76.5805C28.8167 74.5575 28.2871 71.5851 29.3845 69.022C30.482 66.459 32.9956 64.7978 35.7764 64.7978C48.4522 64.7978 56.5711 61.1693 61.5613 56.5322C66.5855 51.8634 69.0988 45.5639 69.4511 39.0021C69.8074 32.3635 67.9204 25.8343 64.6098 21.1245C61.3491 16.4859 57.0242 13.9568 52.1739 13.9568H13.913V153.022C13.913 156.876 10.7985 160 6.95652 160C3.11454 160 0 156.876 0 153.022V6.9786C0 3.12466 3.11454 0.000426603 6.95652 0.000426603H52.1739C62.4789 0.000420424 70.7006 5.57095 75.9803 13.0819C81.21 20.5216 83.8572 30.1916 83.344 39.7525C82.8266 49.39 79.0666 59.2898 71.0163 66.7705C65.7392 71.6743 58.8972 75.2823 50.4989 77.1966L72.4925 100.435L147.533 2.7201C149.35 0.353734 152.467 -0.589957 155.286 0.372881Z" fill="#617A9E"/>
</svg>
