<svg width="40" height="40" viewBox="0 0 40 40" fill="none" xmlns="http://www.w3.org/2000/svg">
<path fill-rule="evenodd" clip-rule="evenodd" d="M16 0H24V3.47326C25.7848 3.9037 27.4598 4.61575 28.9754 5.55976L31.5352 3L37.192 8.65685L34.586 11.2629C35.4577 12.7151 36.1187 14.3082 36.5267 16H40V24H36.5267C36.1368 25.6168 35.5158 27.1435 34.7006 28.5433L37.0967 30.9393L31.4398 36.5962L29.1644 34.3208C27.5995 35.3243 25.8593 36.0783 24 36.5267V40H16V36.5267C14.0666 36.0605 12.2621 35.2638 10.6495 34.1997L8.65685 36.1924L3 30.5355L5.18745 28.3481C4.42721 27.002 3.84514 25.542 3.47326 24H0V16H3.47326C3.89251 14.2616 4.57893 12.6273 5.48662 11.1431L3.00037 8.65685L8.65723 3L11.1436 5.48633C12.6277 4.57878 14.2618 3.89247 16 3.47326V0ZM7 20C7 13.1567 12.2876 7.54843 19.0001 7.03788V11H18.1996V12.5631C17.4176 12.7517 16.6823 13.0605 16.0146 13.4688L14.8959 12.35L12.3503 14.8956L13.4689 16.0143C13.0604 16.6822 12.7515 17.4176 12.5628 18.2H11V21.8H12.5628C12.656 22.1865 12.7786 22.5616 12.928 22.9228L8.27035 25.6119C7.45607 23.913 7 22.0098 7 20ZM12.8729 25.2641L9.27126 27.3434C11.6138 30.7593 15.5452 33 20 33C24.4531 33 28.3832 30.761 30.726 27.3474L27.2664 25.35L25.1481 27.4683L24.1241 26.4442C23.4199 26.8958 22.637 27.2351 21.8004 27.4369V29H18.2004V27.4372C17.3301 27.2274 16.5179 26.8688 15.7921 26.3899L14.8954 27.2866L12.8729 25.2641ZM24.4917 23.748C23.4186 25.0327 21.8046 25.85 19.9998 25.85C18.1933 25.85 16.578 25.0312 15.5049 23.7444L18.0467 22.2769C18.5716 22.7276 19.2541 23 20.0001 23C20.7443 23 21.4253 22.729 21.9496 22.2804L24.4917 23.748ZM27.0698 22.9271L31.7276 25.6163C32.5432 23.9163 33 22.0115 33 20C33 13.1568 27.7125 7.5486 21.0001 7.0379V11H21.7996V12.563C22.603 12.7567 23.3569 13.0772 24.039 13.5021L25.1911 12.35L27.7367 14.8956L26.5637 16.0686C26.9559 16.722 27.2533 17.4388 27.4368 18.2H29V21.8H27.4369C27.3433 22.1881 27.2201 22.5646 27.0698 22.9271ZM21.0001 14.2352C23.7544 14.7098 25.8498 17.1102 25.8498 20C25.8498 20.7088 25.7238 21.388 25.4929 22.0167L22.9501 20.5486C22.983 20.3707 23.0001 20.1874 23.0001 20C23.0001 18.6938 22.1653 17.5825 21.0001 17.1707V14.2352ZM19.0001 14.2351V17.1707C17.835 17.5825 17.0001 18.6938 17.0001 20C17.0001 20.1856 17.017 20.3672 17.0492 20.5434L14.5051 22.0123C14.2753 21.3849 14.1498 20.7071 14.1498 20C14.1498 17.11 16.2455 14.7094 19.0001 14.2351Z" fill="#171717"/>
</svg>
