<svg width="40" height="36" viewBox="0 0 40 36" fill="none" xmlns="http://www.w3.org/2000/svg">
<path fill-rule="evenodd" clip-rule="evenodd" d="M17.8713 34.5811C18.4225 35.1937 19.2727 35.3779 19.7127 34.2797L20.4643 31.7759C20.4564 31.7593 20.4486 31.7425 20.4407 31.7256C20.8651 30.603 21.3758 29.2206 21.9728 27.5785C22.659 25.753 23.3966 23.7808 24.1858 21.6618C24.9749 19.5429 25.7468 17.4403 26.5016 15.354C27.2907 13.2351 28.0112 11.2955 28.6631 9.53512C29.315 7.77479 29.8468 6.34045 30.2585 5.23209C30.7045 4.09114 30.9447 3.45546 30.979 3.32507C31.0476 3.16207 31.1505 3.09688 31.2877 3.12947C31.4593 3.16207 31.5451 3.27617 31.5451 3.47176V30.7569C31.5451 30.9192 31.5465 31.0745 31.5479 31.2229C31.5584 32.3555 31.5651 33.0803 30.8977 33.3974C30.1772 33.7234 29.1651 33.8864 27.8614 33.8864C27.6555 33.8864 27.484 33.9679 27.3467 34.1309C27.2095 34.2938 27.1409 34.4894 27.1409 34.7176C27.1409 35.2392 27.381 35.5 27.8614 35.5C28.2388 35.5 28.9249 35.4837 29.9199 35.4511C30.9149 35.4185 31.7166 35.4022 33.2948 35.4022C34.8731 35.4022 35.6919 35.4185 36.7212 35.4511C37.7505 35.4837 38.4367 35.5 38.7798 35.5C39.2601 35.5 39.5003 35.2392 39.5003 34.7176C39.5003 34.4894 39.4316 34.2938 39.2944 34.1309C39.1915 33.9679 39.0199 33.8864 38.7798 33.8864C37.7162 33.8864 36.9271 33.6908 36.4124 33.2996C36.0305 33.0093 36.0573 32.4677 36.0966 31.6748C36.1102 31.3992 36.1253 31.0932 36.1253 30.7569V17.6522V4.54752C36.1253 3.37397 36.1917 2.5916 36.8093 2.20041C37.4268 1.80923 38.2502 1.61364 39.2795 1.61364C39.5197 1.61364 39.6912 1.53214 39.7942 1.36915C39.9314 1.20615 40 1.01056 40 0.782368C40 0.586777 39.9314 0.407485 39.7942 0.244491C39.6912 0.0814979 39.5197 0 39.2795 0C39.0393 0 38.3532 0.0325995 37.221 0.097796C36.1231 0.130394 34.5471 0.146693 32.0082 0.146693C31.4593 0.146693 30.979 0.260788 30.5673 0.48898C30.1899 0.684572 29.8982 1.05946 29.6924 1.61364C29.6238 1.77663 29.4179 2.33081 29.0748 3.27617C28.7317 4.18893 28.2857 5.36249 27.7367 6.79683C27.2221 8.23118 26.656 9.79591 26.0384 11.491C25.4209 13.1536 24.7862 14.8324 24.1343 16.5275C23.5167 18.2227 22.9335 19.8037 22.3845 21.2707C21.8699 22.705 21.441 23.8949 21.0979 24.8402C20.5288 26.1812 20.3229 26.7517 20.2543 26.9473C20.22 27.0777 20.1343 27.1592 19.997 27.1918C19.8598 27.1918 19.7568 27.1103 19.6882 26.9473C19.6851 26.9413 19.6714 26.909 19.6487 26.855C19.5751 26.6802 19.4059 26.2786 19.1861 25.8079C19.0428 25.2634 18.8381 24.7573 18.6309 24.2452C18.4702 23.8479 18.308 23.447 18.1719 23.0218C17.8212 21.8933 17.3577 20.8776 16.7815 19.9748C16.2052 19.072 15.4661 18.3949 14.5642 17.9435C14.4139 17.879 14.3513 17.7661 14.3763 17.6049C14.4014 17.4114 14.5016 17.2825 14.677 17.218C15.3534 16.96 16.0549 16.6537 16.7815 16.299C17.5331 15.9121 18.2346 15.3962 18.886 14.7514C19.5624 14.1065 20.101 13.3004 20.5019 12.3331C20.9278 11.3658 21.1408 10.1889 21.1408 8.80245C21.1408 6.70663 20.7274 5.01385 19.9006 3.72411C19.0738 2.43438 18.0091 1.49932 16.7063 0.918938C15.4035 0.306313 14.0381 0 12.61 0C12.0088 0 11.3699 0.0161232 10.6934 0.0483662C10.0421 0.0483662 9.25286 0.0644872 8.32588 0.0967302H5.07334C3.79561 0.0967302 2.76842 0.0806092 1.99176 0.0483662C1.2151 0.0161232 0.726553 0 0.526124 0C0.175375 0 0 0.257948 0 0.773841C0 1.28974 0.175375 1.54768 0.526124 1.54768C1.70364 1.54768 2.4803 1.77339 2.8561 2.2248C3.23191 2.64396 3.41981 3.38556 3.41981 4.44959L3.17738 30.5184C3.17738 30.6338 3.17772 30.7455 3.17804 30.8534L3.17804 30.8535C3.18135 31.9516 3.18349 32.6621 2.81852 32.985C2.44272 33.3397 1.67859 33.517 0.526124 33.517C0.35075 33.517 0.212955 33.5976 0.112741 33.7589C0.0375804 33.9201 0 34.0974 0 34.2909C0 34.5166 0.0375804 34.71 0.112741 34.8713C0.212955 35.0325 0.35075 35.1131 0.526124 35.1131C0.77666 35.1131 1.2652 35.097 1.99176 35.0647C2.74336 35.0002 3.52813 34.968 4.83092 34.968C6.23391 34.968 7.08132 35.0002 7.85798 35.0647C8.65969 35.097 9.18581 35.1131 9.43635 35.1131C9.61173 35.1131 9.73699 35.0325 9.81215 34.8713C9.91237 34.71 9.96247 34.5166 9.96247 34.2909C9.96247 34.0974 9.91237 33.9201 9.81215 33.7589C9.73699 33.5976 9.61173 33.517 9.43635 33.517C8.30894 33.517 7.4947 33.3397 6.99363 32.985C6.52196 32.6336 6.52199 31.8231 6.52203 30.5536L6.52203 30.5184V18.8624C6.52203 18.4432 6.68488 18.2337 7.01057 18.2337H10.8813C11.9085 18.2337 12.7228 18.5561 13.3241 19.201C13.9253 19.8136 14.3763 20.6358 14.677 21.6676C15.0027 22.6671 15.2532 23.7795 15.4286 25.0048C15.6039 26.23 15.7668 27.4714 15.9171 28.7289C16.0925 29.9541 16.318 31.0827 16.5936 32.1144C16.8942 33.114 17.3201 33.9362 17.8713 34.5811ZM7.01052 16.4925H11.4826C13.1862 16.4925 14.5892 15.7993 15.6916 14.4128C16.7939 13.0263 17.3451 11.1562 17.3451 8.80245C17.3451 7.51271 17.1572 6.33583 16.7814 5.2718C16.4306 4.17552 15.8795 3.30495 15.1279 2.66008C14.4013 2.01521 13.4743 1.69278 12.3469 1.69278H7.31116C6.78504 1.69278 6.52197 2.03133 6.52197 2.70845V15.8638C6.52197 16.2829 6.68482 16.4925 7.01052 16.4925Z" fill="#B51D0B"/>
</svg>
