<svg width="160" height="142" viewBox="0 0 160 142" fill="none" xmlns="http://www.w3.org/2000/svg">
<path fill-rule="evenodd" clip-rule="evenodd" d="M71.4851 138.324C73.6898 140.775 77.0909 141.512 78.8509 137.119L81.8573 127.104C81.8257 127.037 81.7942 126.97 81.7628 126.902C83.4602 122.412 85.5031 116.883 87.8913 110.314C90.636 103.012 93.5866 95.1231 96.743 86.6474C99.8995 78.1717 102.987 69.7612 106.006 61.416C109.163 52.9403 112.045 45.1818 114.652 38.1405C117.26 31.0992 119.387 25.3618 121.034 20.9284C122.818 16.3646 123.779 13.8219 123.916 13.3003C124.19 12.6483 124.602 12.3875 125.151 12.5179C125.837 12.6483 126.18 13.1047 126.18 13.8871V123.028C126.18 123.677 126.186 124.298 126.192 124.891C126.234 129.422 126.26 132.321 123.591 133.59C120.709 134.893 116.66 135.545 111.445 135.545C110.622 135.545 109.936 135.871 109.387 136.523C108.838 137.175 108.563 137.958 108.563 138.871C108.563 140.957 109.524 142 111.445 142C112.955 142 115.7 141.935 119.68 141.804C123.659 141.674 126.866 141.609 133.179 141.609C139.492 141.609 142.768 141.674 146.885 141.804C151.002 141.935 153.747 142 155.119 142C157.04 142 158.001 140.957 158.001 138.871C158.001 137.958 157.727 137.175 157.178 136.523C156.766 135.871 156.08 135.545 155.119 135.545C150.865 135.545 147.708 134.763 145.65 133.198C144.122 132.037 144.229 129.871 144.386 126.699C144.441 125.597 144.501 124.373 144.501 123.028V70.6088V18.1901C144.501 13.4959 144.767 10.3664 147.237 8.80165C149.707 7.23692 153.001 6.45454 157.118 6.45454C158.079 6.45454 158.765 6.12856 159.177 5.47659C159.726 4.82461 160 4.04224 160 3.12947C160 2.34711 159.726 1.62994 159.177 0.977965C158.765 0.325991 158.079 0 157.118 0C156.157 0 153.413 0.130398 148.884 0.391184C144.492 0.521577 138.188 0.586772 128.033 0.586772C125.837 0.586772 123.916 1.04315 122.269 1.95592C120.759 2.73829 119.593 4.23783 118.769 6.45454C118.495 7.10652 117.672 9.32324 116.299 13.1047C114.927 16.7557 113.143 21.45 110.947 27.1873C108.888 32.9247 106.624 39.1837 104.154 45.9642C101.684 52.6143 99.1447 59.3297 96.5372 66.1102C94.0669 72.8907 91.7339 79.2149 89.5381 85.0826C87.4795 90.82 85.7641 95.5794 84.3917 99.3609C82.1152 104.725 81.2918 107.007 81.0173 107.789C80.8801 108.311 80.537 108.637 79.9881 108.767C79.4391 108.767 79.0274 108.441 78.7529 107.789C78.7402 107.765 78.6857 107.636 78.5948 107.42C78.3003 106.721 77.6235 105.114 76.7445 103.232C76.1713 101.053 75.3523 99.0291 74.5237 96.9809C73.8806 95.3916 73.2319 93.788 72.6877 92.0872C71.2847 87.5731 69.4307 83.5104 67.1258 79.8992C64.8209 76.2879 61.8646 73.5795 58.2569 71.7738C57.6556 71.5159 57.405 71.0645 57.5052 70.4196C57.6055 69.6458 58.0063 69.1299 58.7078 68.8719C61.4136 67.8401 64.2196 66.6149 67.1258 65.1962C70.1322 63.6485 72.9382 61.5849 75.5438 59.0054C78.2496 56.426 80.4042 53.2016 82.0076 49.3324C83.7113 45.4632 84.5631 40.7557 84.5631 35.2098C84.5631 26.8265 82.9095 20.0554 79.6025 14.8964C76.2954 9.73751 72.0363 5.99728 66.8252 3.67575C61.614 1.22525 56.1524 0 50.4402 0C48.035 0 45.4796 0.0644929 42.7738 0.193465C40.1682 0.193465 37.0115 0.257949 33.3035 0.386921H20.2934C15.1824 0.386921 11.0737 0.322437 7.96702 0.193465C4.86039 0.0644929 2.90621 0 2.1045 0C0.701499 0 0 1.03179 0 3.09536C0 5.15895 0.701499 6.19074 2.1045 6.19074C6.81456 6.19074 9.9212 7.09355 11.4244 8.89918C12.9276 10.5758 13.6792 13.5422 13.6792 17.7984L12.7095 122.074C12.7095 122.535 12.7109 122.982 12.7122 123.414L12.7122 123.414C12.7254 127.806 12.734 130.648 11.2741 131.94C9.77088 133.359 6.71435 134.068 2.1045 134.068C1.403 134.068 0.851821 134.391 0.450964 135.035C0.150321 135.68 0 136.39 0 137.163C0 138.066 0.150321 138.84 0.450964 139.485C0.851821 140.13 1.403 140.452 2.1045 140.452C3.10664 140.452 5.06081 140.388 7.96702 140.259C10.9734 140.001 14.1125 139.872 19.3237 139.872C24.9357 139.872 28.3253 140.001 31.4319 140.259C34.6388 140.388 36.7433 140.452 37.7454 140.452C38.4469 140.452 38.948 140.13 39.2486 139.485C39.6495 138.84 39.8499 138.066 39.8499 137.163C39.8499 136.39 39.6495 135.68 39.2486 135.035C38.948 134.391 38.4469 134.068 37.7454 134.068C33.2358 134.068 29.9788 133.359 27.9745 131.94C26.0879 130.534 26.088 127.292 26.0881 122.215L26.0881 122.074V75.4496C26.0881 73.7729 26.7395 72.9346 28.0423 72.9346H43.5254C47.6342 72.9346 50.8911 74.2243 53.2963 76.8038C55.7014 79.2543 57.5052 82.5431 58.7078 86.6703C60.0106 90.6685 61.0127 95.1181 61.7142 100.019C62.4157 104.92 63.0671 109.886 63.6684 114.916C64.3699 119.817 65.2719 124.331 66.3742 128.458C67.5768 132.456 69.2804 135.745 71.4851 138.324ZM28.0421 65.97H45.9303C52.7449 65.97 58.3568 63.1971 62.7663 57.6512C67.1757 52.1054 69.3804 44.6249 69.3804 35.2098C69.3804 30.0509 68.6288 25.3433 67.1256 21.0872C65.7226 16.7021 63.5179 13.2198 60.5114 10.6404C57.6052 8.06088 53.8973 6.77114 49.3877 6.77114H29.2446C27.1401 6.77114 26.0879 8.12536 26.0879 10.8338V63.4551C26.0879 65.1317 26.7393 65.97 28.0421 65.97Z" fill="black"/>
</svg>
