<?xml version="1.0" encoding="UTF-8"?><svg id="_レイヤー_1" xmlns="http://www.w3.org/2000/svg" viewBox="0 0 1920 1080"><defs><style>.cls-1{fill:#fff;}.cls-2{fill:#333;}.cls-3{font-size:81px;}.cls-3,.cls-4{font-family:AdornCopperplate, 'Adorn Copperplate';}.cls-4{font-size:180px;}</style></defs><rect class="cls-1" width="1920" height="1080"/><text class="cls-4" transform="translate(365.5 625.37)"><tspan x="0" y="0">Portfolio</tspan></text><text class="cls-3" transform="translate(365.5 393.37)"><tspan x="0" y="0">Rikiya Matsuda</tspan></text><path class="cls-2" d="m1563.46,759.82c.62.1,1.59.15,2.37.24-2.25.09-3.35.06-2.37-.24Z"/><path class="cls-2" d="m1595.01,760.97c-8.15.03-21.06.03-29.18-.92,7.23-.28,26.71-1.78,29.18.92Z"/><path class="cls-2" d="m1562.01,755.44l10.14.81c-5.94.73-4.84-.54-10.14-.81Z"/><polygon class="cls-2" points="1565.7 757.96 1565.17 758.96 1559.76 757.99 1565.7 757.96"/><path class="cls-2" d="m1047.42,767.83c1.05.43,1.7.9,1.21,1.5l-1.21-1.5Z"/><path class="cls-2" d="m1023.93,763.33c-2.11-.16-3.58-.23-4.84-.27,1.45-.08,2.66.03,4.84.27Z"/><path class="cls-2" d="m1068.75,767.41l-4.17.14c1.33-.14,2.79-.21,4.17-.14Z"/><path class="cls-2" d="m1329.35,763.62c3.88.72,7.56,1.37,10.35,1.82-7.55.76-8.2-.86-10.35-1.82Z"/><path class="cls-2" d="m915.99,748.87l-1.01.79c-1.1-.36-1.65-.71,1.01-.79Z"/><path class="cls-2" d="m1018.3,750.06c.1.46-.12.8-.55,1.05-.41-.07-.83-.11-1.21-.19l1.77-.86Z"/><path class="cls-2" d="m1085.28,765.79c.06-.03.16-.05.23-.09l3.39.5c-1.82.15-2.97.01-3.62-.41Z"/><path class="cls-2" d="m883.03,747.78c-1.46-.45-2.87-1-4.1-1.74,3.18.37,4.66,1.14,4.1,1.74Z"/><path class="cls-2" d="m1018.51,763.06s0-.02-.05-.04c.17,0,.46.03.63.03-.22.01-.37,0-.58,0Z"/><path class="cls-2" d="m1052.23,750.92c-1.79-.14-3.47-.23-5.39-.41,2.28-.19,4.19.04,5.39.41Z"/><path class="cls-2" d="m1329.35,763.62c-1.1-.2-2.19-.39-3.28-.61,1.55.02,2.5.26,3.28.61Z"/><path class="cls-2" d="m1536.19,761.61c-3.28.01-4.05-.55-4.67-1.13,1.8.26,3.41.62,4.67,1.13Z"/><path class="cls-2" d="m350.63,765.09l-1.31-.02c.55-.04.98-.02,1.31.02Z"/><path class="cls-2" d="m476.22,767.22c.59.18,1.21.38,1.66.64-1.07.21-1.68-.16-1.66-.64Z"/><path class="cls-2" d="m591.9,747.93c-8.2,1.16-16.67-1.21-23.81-1.33l2.44.99-7.2-.82.08,1.41c-11.9-.66-26.67.8-31.03-1.45l1.4,2.26-12.62-1.79,7.23,1.53c-14.18.47-35.72-1.29-38.75-1.27l1.28.84c-2.32.43-4.15-.12-6.57-.4l1.87,1.26c-21.37-.34-27.21,2.51-51.06,1.18-6.5.3,3.6.41,3.7,1.12-3.55,1-11.9.04-13.71-.52,1.89,1.97,11.94,1.37,4.31,2.95-5.42-.97,3.7,1.83-5.84,1.44l-3.74-2.53c-5.31.44-1.06,1.98-9.45,1.73-9.58-1.1,11.73-2.87-3.7-3.24-7.73.17-16.27,5.86-31.26,4.5-12.93,1.32,6.8,3.94-11.09,3.29l11.45,1.66c-2.96.72-1.09,1.98-8.84,1.45-2.45-.98-7.25-2.24-11.43-2.36,16.76,1.92-14.69,2.88.91,5.37l-5.82-.09c.72.1.91.34.52.53l-7.73.17c4.77.55,16.1.79,10.83,2.65l-11.19.47c2.99,1.4-1.11,1.98-.46,3.11l32.92,2.71c-1.29-.84-6.03-1.39-4.27-2.25,8.79-.74,7.18,1.52,15.43.36l-3.65-1.11c.66.42,1.82.56.01.7-2.89.72-4.16-.12-4.19-.83,2.89-1.42,11.22-.47,13.7.52,10.69-.18,2.2-2.56,4.56-2.99,5.53,2.38,17.85-.06,24.48,1.04l-4.25-1.54c8.14-1.87,15.42-.34,20.19.21l-1.85-1.27c11.33.24,16.94-4.02,25.57.47l-1.2-.84c4.65-.39,11.7-1.34,16.15,0,.1-.53.89-1.19,2.78-1.34,2.52,1.74,7.35.42,14.19.11-4.55-.45-3.09-2.7-7.88-3.24,10.57-2.3,9.69,2.51,18.56,2.47,5.32-1.15-4.77-1.26-6.05-2.1,13.71,1.22,28.16-5.19,36.81-.7l-5.88,1.43c5.45.97,8.4.96,7.74.54-1.75.15-2.34-.28-2.96-.7,16.46-2.32,25.74,3.3,42.36,2.39-1.24-.84-3.61-1.12-3.71-1.83,7.65-.88,7.45,4.36,19.8,2.61l-2.42-.98c4.11-.59,7.16.82,6.61,1.11.32-3.82,26.15.19,34.76-4.79,6.05,2.1,23.39,3.73,28.68,2.58,7.6-2.29-6.73-2.52-3.9-4.65,5.95-.02,9.08,2.09,17.94,1.35.15,2.12-17.52,4.31-.84,5.52l2.33-1.14c-1.73.15-4.1.58-6.52.31-4.82-1.25,2.89-1.42,4-2l17.91.64c1.31,2.26-9.4,1.73-10.51,2.3,14.17-.48,31.22-3.79,44.4-2.28l-1.25-.85c16.8,1.92,9.8-4.13,23.17-.51,7.06-.59-2.54-2.4,8.11-2.58,3.01-.01,1.25.84.71,1.13,13.1.8,5.77-2.15,17.85-.07l-2.61-2.39c14.4,1.65,29.5,5.83,41.95,4.8-.74-1.84-8.44-1.67-11.51-3.07,16.86,3.33,40.45.42,56.03,2.2-4.66,1.57,7.38,3.65-2.61,4.96-2.58-2.39-7.26-.82-12.61-1.08,8.64,5.21,36.12-2.53,38.76,1.98l2.28-1.85c2.39.27,8.46,1.67,4.27,2.25l17.19-1.19c-6.04-1.4-18.76-4.6-22.76-2.61-4.89-1.96,7.04-1.3,2.71-3.55,11.51,3.07,7.07-1.3,18.99-.63-5.39,2.67,11.86,3.62,11.32,4.91,3.9-.49,12.56.74,15.92,1.65,6.89.25,22.7-1.9,33.76-.98-4.19-.84-10.81-1.94-10.32-3.64,5.42.97,11.38.94,12.4-1.04-19.25-3.61-6.2,4.55-23.63,2.21-4.31-2.25-9.08-2.8-18.06-3.47,4.09-1.29,2.29-1.85,3.97-3.41,10.99,4.76,28.58.46,42.95,2.82,6.05,1.39,1.5,4.38,15.22,4.9l-11.78,1.45c12.96-1.32,3.04,1.4,13.75,1.93l-4.26-1.54c6.55-.3,8.95-.03,12.58,1.09l-5.54-2.39c3.53-.3,10.06-.6,10.15.81.91-.58,1.23-1.05,1.23-1.45.69.4,2.36.65,6.49.57-2.42-.27-4.17-.12-4.22-.83,15.76.56,3.68-2.58,13.45-2.35-1.54-.55,1.23-1.24,4.73-1.53-.24,3.76,19.11,4.25,24.22,6.33l-.06-.05,13.18,1.51c-2.67-.31.21-1.33,4.04-1.73l-.62.02c4.19-.58-4.98-4.08,7.58-3l6.6,1.11c-1.18-.13-.05-.71.57-.99l6.8,1.02c10.4-3.51,19.63,1.98,31.86.26-3.53.3-8.91.03-6.6-1.11,2.37-.43,5.95-.02,7.79.54l-.62-.42,23.31,2.32c-1.89-1.27-14.94-1.36-9.11-2.79,3.45-1.71,10.14.1,14.32.23-.54.99-8.25,1.87-.46,2.4.95-.49,8.37-1.51,4.87-2.22,7.99,1.01,19.59,1.62,26.73,3.38,2.27-.43-1.3-.85-2.49-.98l-.57.28c-4.81-.55-.74-2.55-10.19-1.52-.79-3.26,13.62-.9,21.91-1.36l-13.21-2.21c22.25-4.46,52.3.37,74.35.43-6.47,1.02-11.88.05-11.11,2.59,13.7,1.22,11.9.66,25.56,1.18l-1.17-.13c7.06-1.3,16.71,1.21,21.34-1.07-3.05-1.4-10.03,1.32-10.2-1.52l17.24.22c-5.42-1.68-17.24-.22-23.81-.62-4.74.16,9.53.39,7.28,2.24-16.09-.09-19.76-1.91-27.67-4.57-4.82-1.97,7.03-2,10.02-2.02,10.24,2.93,25.2,4.29,41.16,2.96l8.76-2.15c7.9,1.95,4.54,5.78,18.81,5.3l-4.26-1.54c3.12-.6,5.18-.81,6.69-.79-6.14-1.16-12.74-2.48-18.29-3.69,8.12-3.28,23.32,1.62,35.25,2.28-.62-.42-4.79-.55-6.03-1.39,17.8-.78,36.44,3.12,50.19,3.63,5.81-1.43-11.42-.95-8.59-3.08,7.23.82,15.39-1.05,17.33.93-3.16-2.81,16.61-.21,2.78-2.84,26.06-1.23,54.74,1.36,81.07,2.96-1.28-.85-1.28-1.55-.17-2.12-8.91.03-22-.77-26.95-2.73,5.85-1.44,13.85,1.93,15.53,1.08-2.99-.7-8.93-.67-9.03-2.09,7.63-1.59,11.9.66,17.27.93l-2.91.72c16.74,1.92,9.24,4.92,27.01,4.14,6.44-1.72-.06-1.41-.17-3.53,4.19.83,17.68-1.48,22.04.77l-10.76.18c7.53.6,14.65.59,19.87,1.33-.54-.46-.98-.92-2.57-1.11,5.98.68,13.66.51,16.72,1.92l1.68-2.27c-3.57,1-14.24,1.19-16.04-.08,1.03-1.99,11.82-.75,16.55-.91-20.84-.63-21.1-4.17-38.75-2.69l2.98.7c-10.98,1.72-22.29-1.12-31.91-1.05,2.71-.46,3.26-1.29,1.99-1.67-21.28,1.77-42.21.43-66.47,1.51l-7.3-2.24-.45,1.7c-11.87.75-2.57-2.4-10.22-2.23,2.91,0,2.39.27,2.98.7-13.77-1.93-7.65,1.58-15.38,1.05,3.67,1.82,14.9.65,11.45,3.07-13.74-1.93-35.11-.86-37.13-4.96-25.51,1.65-57.14-.92-78.59-1.27-2.93.72,1.83.56.7,1.14-8.48-2.37-28.46,1.66-28.59-.46-4.1.58-5.82,2.14-6.93,2.71-5.44-1.02-11.96-1.51-18.87-1.8l5.06.59-.55.29-7.18-.83.27-.13c-17.21-.61-37.1-.09-52.72-2.37,8.99,1.38-2.26,2.56,1.99,3.39-7.94-3.37-26.96-3.44-42.4-3.1.07.71-1.13,1.27.68,1.84l-8.95-1.39,1.19.85c-16.02.62-33.47-3.13-44.05-1.54,6.54.4,6.58,1.11,7.23,2.24-11.48-.08-22.3-.12-35.72-1.14.72.21,1.19.44,1.21.7-3.51.3-7.74-.54-11.33-.95l-.49,1.69c-6.86-.78-15.72.09-23.87-1.27-3.2,1.86-19.75-1.73-29.16-.94-3.6-.41,7.85,1.95-2.25,1.85-1.43-3.68-13.11-.09-13.9-4.05l-8.83,1.45-1.95-1.98c-7.5,3.71-11.43-1.66-22.59-.48.59.43,1.79.56,1.21.85-3.61-.41-11.93-.66-5.48-1.68-5.95.02-26.2-.9-17.11,1.19-.66-1.13,7.66-.17,11.26.24-.47,1.7-9.41,1.03-11.63,2.87-.29-.19-1.47-.48-2.32-.76l-1.28,1.05c-11.18-1.87-22.54-.52-30.68-2.94-.47.52-2.43.93-6.27.81l-.16-2.12-11.89.05,5.57,3.09c-13.04.62-22.22-2.89-32.94-3.41-2.75,3.55-20.91-1.34-30.19,1.81l8.37.96c-17.89-.64-20.74,1.49-37.42.28,14.15-1.18,14.24-.47,34.85-3.38-20.7,1.49-35.76-2-54.71.06,1.27.84,6.02,1.39,1.38,2.26-3.7-1.83-17.85.07-15.05-2.07-5.88.72-6.91,2.71-10.51,3.01l-19.75-2.61.6.42c-33.57,4.93-62.67-3.31-96.36-1.21l.65,1.13-8.43-1.67c6.61,1.11-2.86,1.42-3.38,2.41l-21.58-2.47c-.49.99.79,3.25,6.08,2.81Zm284.21.95l5.11.15c1.03-.11,2.08-.13,3.24.09l-3.24-.09c-2.63.28-4.56,1.17-5.11-.15Zm471.05,4.08c2.46.98-3.54.3-5.26.44l8.32.26c1.15-.57-1.85-.56-3.06-.7Zm-470.76,9.63l-2.85,1.42-3.65-1.12,6.5-.31Zm-72.51.12l7.23.82-.61.29-7.15-.82.53-.29Zm-80.56-11.45c.46.08.88.14,1.4.28-.46-.05-.94-.15-1.4-.28-5.58-1.02-7.8,1.52-12.34-.95,5.57-2.11,9.15.08,12.34.95Zm127.39-.04c2.42.28,3.61.41,5.38.26-1.26-.84-6.11-2.1-2.56-2.39,2.47.98,10.76,1.23,10.88,2.65-7.21-1.53-12.31,2.45-13.7-.51Zm170.69.93l-1.82.15,6.65,1.11-4.84-1.25Zm30.99,1.44c3.69,1.82,13.17,1.51,19.72,1.91,1.7-1.56-4.96-3.37-12.68-3.21-9.03-1.38-3.41,2.42-7.05,1.3Zm-257.37.37l1.84,1.26-1.73.15,7.16.82c-9.41,1.74-16.14-1.5-20.95-2.05,4.2.13,15.68,3.2,13.68-.19Zm323.44.52c6.61,1.11,18.52,2.48,17.43,3.76.42-2.41-9.15-3.5-12.12-3.49-1.73.14-2.98.01-5.31-.26Zm-.35,4.53c-9.58-1.1-10.24-2.22-17.55-4.47,9.49-1.02,12.08,2.08,10.95,3.35,6.61,1.11,5.33-.45,8.86-.74l-2.25,1.85Zm-9.95-6.76l-3.9.33c-4.62,1-5.58,3.73-12.05,1l12.05-1c1.03-.24,2.31-.38,3.9-.33Zm80.57.12l-3.94-.83c3.88.08,4.33.44,3.94.83l3.28.7c-8.54.87-4.15.04-3.28-.7Zm-61.45.65l-11.32-.24c.65,1.13,7.72.54,11.32.24Zm58.92,1.49c-4.77.16-17.21.49-15.48.34,1.13-1.28,12.46-1.03,15.48-.34Zm249.86,3.33l-7.14-.12,3.45-1.71,3.69,1.83Zm-83.72,1.29l1.77-.85,4.15.13-5.92.73Zm-77.19.12c.37-.37.17-.83-.47-1.23-1.17-.15-2.2-.37-2.69-.72,1.05,0,2.07.31,2.69.72,3.09.38,7.7.17,9.8-.35-1.24-.84-6.01-.68-7.85-1.24,7.06-2.01,22.91,4.02,18.39-1.76,2.99.69,13.22,2.21,9.68,3.22-8.09-.33-23.41.29-29.55,1.36-.36.31-1.03.55-2.42.6.41-.21,1.33-.41,2.42-.6Zm-104.04,1.25c-2.92-.14-4.19-.32-4.76-.51-2.51-.43-4.42-1.07-3.68-1.87,6.1.7,2.2,1.35,3.68,1.87,1.53.26,3.19.46,4.76.51Zm-18.39.35l9.55,1.09-4.81-1.25,14.39,2.35c-8.26,1.16-17.85-.64-19.13-2.19Zm-3.36,1.11l-1.97-1.38,3.01,1.41-1.04-.03.45.31-16.09-.79,15.64.48Zm-164.38-2.77c-6.03,4.77,14.23,3.38,17.37,5.68.67-1.6,6.77-4.08-8.94-4.02,13.58-1.6,8.51,3.09,16.59-.91-6.5.3-14.34-.94-15.5-1.08l7.66-.17c-4.34-2.95-11.8,1.45-17.18.49Zm-82.6.73l-10.09-.11,9.55.39.54-.28Zm-249,1.33c.71,1.12-12.27,3.16-15.36,1.04,6.54-.31,13.69-.19,15.36-1.04Zm-106.99-.32l11.33.95c-2.19,2.55-10.12-.1-15.44.34-1.85-1.27,2.34-.43,4.1-1.29Zm-73.73-.02l-3.61-.41,3.79,2.53-.19-2.12Zm4.96,3.37c-2.27,1.14,5.47,1.68,7.3,1.53l-7.3-1.53Zm-66.42,2.22l4.73-.16-4.27-2.25-.45,2.41Zm7.53-2.64c1.11,1.62.64,3.79,11.52,2.71.45-1.7-2.51-1.69,1.53-3.68-3.58-.41-6.52.31-8.31.45,2.44.28,5.32-.44,5.99.69-4.05.64-8.22.43-10.73-.17-.38-.58-.99-1.08-2.42-1.34.04.52.96.99,2.42,1.34Zm39.42-1.78c1.44-.2,2.68-.43,3.25-.71l.66.43c-1.48.73-2.75.56-3.9.29-1.57.22-3.41.42-5.29.6-1.21,1.43,6.24,2.41,8.21,3.21-3.54-.41-6.61-1.81-11.31-.95.62.42.03.71,2.99.69l-6.49.31c-7.43-2-.33-2.61,6.6-3.27.22-.32.74-.65,2.06-1.01,1.11-.21,2.13.15,3.24.41Zm-52.16-3.2l3.56.41c1.83.56.67,1.13,1.3,1.55-4.17-.13-9.6-1.1-4.86-1.96Zm213.37-.49c-2.36.43,3.09,2.11,8.4,1.67l-2.82,2.13c-.13-1.41-10.79-1.23-11.98-1.37-1.88-1.97,2.27-1.14,6.41-2.43Zm247.88-.05c1.94,2.68,15.51,1.07,18.51,1.77-7.06.59-23.11,1.21-18.51-1.77Zm23.54-1.09c3.71.03,4.77-.22,4.39,1.13,1.8.56,4.74-.16,6.56.4-7.23,1.19-6.78-.96-10.94-1.53-.97,0-2.07-.03-3.45-.11,1.5-.08,2.54,0,3.45.11Zm-144.89-.17l-4.94-1.96-7.71.17,12.65,1.79Zm-82.87-3.52c.63,1.13-8.22,1.16-10.07.6.57,1.48,6.5,1.29,11.23,1.45.6.12,1.59.2,3.11.19-.92-.11-1.95-.15-3.11-.19-1.77-.35-.54-1.11-.54-1.63l2.35-.43-6.53-.4,3.56.41Zm-145.73-1.6c-5.29,1.15-5.92.73-9.48.32,1.14-.57,5.88-.73,9.48-.32Zm189.66.31c-8.91.74,4.28,2.25-1.57,2.98l4.67-.15c-7.58,1.58-5.41-1.68-10.74-1.24l3.57-.29c2.82-1.43-5.46-.97-6.13-2.1,4.16-.58,13.74.51,10.2.81Zm-198.03-1.26c-8.82,1.45-7.26-1.53-12.61-1.79,7.03-1.3,6,1.39,12.61,1.79Zm141.87-3.06l.56-.28-7.16-.83-.57.29,7.17.82Z"/><path class="cls-2" d="m497.99,765.95c-2.18.18-3.62.15-4.8.04,1.52-.07,3.12-.11,4.8-.04Z"/><path class="cls-2" d="m912.43,767.41c.2-.38.97-.58,2-.71-.13.22-.63.46-2,.71Z"/><path class="cls-2" d="m929.69,768.34c.22.01.46,0,.66,0,.15.04.37.09.54.13l-1.2-.14Z"/><path class="cls-2" d="m1530.98,763.47c3.7,1.82-3.57.3-6.54.3,2.98,0,4.12-1.29,6.54-.3Z"/><path class="cls-2" d="m1507.59,760.44c1.77.54,4.27.9,7.34,1.06-1.92.05-4.03-.14-7.34-1.06Z"/><path class="cls-2" d="m1526.67,761.22c-4.56.38-8.52.45-11.74.28,3-.08,5.54-.78,11.74-.28Z"/><path class="cls-2" d="m1444.61,760.95c3.68,1.12,10.74.53,10.74.53-15.4,1.05,3.1,2.11,4.38,2.96-9.58-.39-9.65-1.8-15.12-3.48Z"/><path class="cls-2" d="m1424.22,760.38c1.58-.01,3.09-.05,4.27-.22-1.49.28-2.9.3-4.27.22Z"/><path class="cls-2" d="m1418.49,761.47c-5.33-.26-7.21-1.53-9.65-2.51,6.45-.91,10.57,1.11,15.38,1.42-3.78.03-7.48-.11-5.73,1.09Z"/><path class="cls-2" d="m1254.22,767.59c1.23.14,4.17.13,4.25.83l-8.93.03c-3.58-.41,2.89-.72,4.67-.87Z"/><path class="cls-2" d="m1221.3,764.17c-7.13-.11-3.42,1.71-7.03,1.3l.41-2.4,6.62,1.11Z"/><path class="cls-2" d="m1225.27,751.99l2.1.24c-.79-.03-1.57-.06-2.41-.09l.3-.15Z"/><path class="cls-2" d="m1186.97,766.56l4.93,2.67c-5.99-.68-6.07-2.81-4.93-2.67Z"/><polygon class="cls-2" points="1159.78 768.36 1163.96 769.18 1150.86 768.38 1159.78 768.36"/><polygon class="cls-2" points="1126.99 767.06 1125.84 767.63 1116.86 766.95 1126.99 767.06"/><path class="cls-2" d="m770.21,764.82c-1.36-2.26,12.94-1.32,17.11-1.9-2.85,2.84-11.41-.94-17.11,1.9Z"/><path class="cls-2" d="m510.43,764.91l13.67.52c-10.59.89-2.95,0-13.67-.52Z"/></svg>