<?xml version="1.0" encoding="UTF-8"?><svg id="_レイヤー_2" xmlns="http://www.w3.org/2000/svg" viewBox="0 0 242.71 127.12"><defs><style>.cls-1{fill:#1b1b1b;}</style></defs><g id="_レイヤー_1-2"><path d="m79.96,86.06c-.79,0-1.73-.07-2.38-.07-.94,0-1.01-1.58-1.01-2.3,0-.43,1.15-.5,2.23-.5.65,0,1.3-.07,1.73-.07-.86-1.01-1.73-1.66-3.02-3.38-1.66-2.23-2.81-3.6-4.03-5.26-.5-.65-.86-2.23-1.37-2.95-.86-1.22-2.3-1.87-3.53-3.38l-3.74-4.32c-3.74,0-5.26.29-7.63.29-2.16,0-3.74-.14-4.54-.14-.86,0-1.01.65-1.01,1.66,0,2.3-.36,4.54-.36,7.13,0,.65.14,1.01.14,7.85,0,1.51.14,1.94.22,2.81h3.38c.94,0,1.44,1.01,1.44,1.87,0,.58-.07,1.15-.86,1.15-.86,0-3.38.07-4.54.07s-2.02-.43-3.02-.43c-.72,0-1.73.29-2.59.29-1.22,0-2.45-.22-4.46-.22-.22,0-.86.07-1.51.07-.86,0-1.8-.14-1.8-.58,0-.79.07-2.23,1.08-2.23.65.07,1.3.07,4.25.07,0-.65,0-1.44.22-2.3.22-.65.22-1.15.22-1.73,0-.72-.07-1.51-.07-2.59,0-2.3.36-5.33.36-7.2,0-2.81-.36-1.51-.36-3.6,0-2.23-.14-1.87-.14-3.46,0-1.3.58-3.53.58-5.47,0-.94-.43-1.8-.43-2.88,0-1.37.22-2.74.22-4.1,0-.94.22-1.87.22-2.88,0-2.81-.5-5.62-.5-9.36,0-1.01.07-1.66.07-2.59,0-.58-.43-.58-1.3-.58-.79,0-1.66.07-2.59.07-.86,0-1.8-.14-1.8-.58,0-.72.07-2.23,1.01-2.23.65,0,1.51-.07,2.3-.07.58,0,1.08.14,1.73.14,1.51,0,4.9-.36,6.19-.36.94,0,1.87.22,3.02.22,1.44-.22,3.17-.22,4.03-.22.94,0,6.98-.36,9.29-.36,1.66.14,5.62.29,7.92.29.5,0,2.95.58,3.46.58,2.45,0,2.74,1.44,4.46,1.73,1.87.36,5.4,2.52,5.98,3.82,1.22,2.38,2.02,3.1,2.02,7.49,0,2.66-.07,5.47-1.22,8.21-2.09,4.9-7.92,7.78-9.65,8.42-.94.36-2.3.86-3.38,1.15,1.15,1.22,2.88,3.46,3.6,4.82,1.66,2.95,2.88,3.46,4.46,5.76.79,1.15,3.02,3.82,3.6,4.61,2.23,3.1,3.82,3.6,4.46,4.75h2.88c.72,0,.94.29.94,1.15,0,.79-.5,1.87-1.51,1.87-1.73,0-3.38.22-5.54.22-1.37,0-4.54-.22-5.98-.22-.43,0-.94.07-1.8.07Zm-1.01-33.05c1.22-1.58,2.3-4.82,2.3-6.84-.07-2.23-1.08-4.46-2.09-5.69-.94-1.37-1.3-.58-2.95-1.37-.94-.5-1.66-.58-3.02-.58-3.17,0-10.15-.22-12.82-.22-4.46,0-5.9,0-8.35.72-.07,0-.36,3.02-.36,3.67,0,.94.22,1.8.22,2.16s-.36,1.66-.36,3.67c0,.43-.07.86-.07,1.3,0,2.16.43,4.32.43,7.49,1.37.43,3.1.5,5.04.5,2.23,0,4.68-.14,6.77-.14,3.46,0,7.34-.14,10.01-1.51,2.3-1.15,4.03-1.58,5.26-3.17Z"/><path d="m110.34,76.34c1.51.36,2.81,1.66,4.39,3.46.65.5.94,1.44.94,2.16,0,.86-.36,1.87-1.01,2.88-1.08,1.87-3.6,2.16-4.61,3.24-.79.72-1.58.94-2.66.94s-2.02-.29-2.74-.94c-.79-.94-1.87-3.31-1.87-4.68,0-1.15,2.09-4.39,3.17-5.69.86-1.01,2.16-1.37,4.39-1.37Z"/><path d="m186.09,86.5c-.94,0-1.01-1.58-1.01-2.3,0-.43.58-.5,1.08-.5h3.38c.14-1.15.43-1.66.43-2.81,0-3.89-.36-6.26-.36-7.85,0-.14,0-.22.5-4.03,0-.14.72-1.22.72-1.37-.14-.86-.86-1.58-.86-2.45.22-5.83.22-6.12.22-6.41,0-1.58.07-2.88.07-4.82l.5-7.92c0-1.08-.36-1.87-.5-2.02,0,0-2.3,4.1-3.31,5.69-1.22,1.66-1.66,3.02-2.3,4.32-.94,1.22-2.16,3.46-2.88,4.68-.58,1.08-.79,2.59-1.94,3.53-1.08,1.01-1.15,2.74-2.23,4.97-1.51,3.1-4.9,9.36-5.76,10.23-.72.94-1.15,1.94-1.87,3.89-1.01,2.02-.79,1.87-1.94,3.67-.72,1.01-.86,1.73-2.81,1.73-2.23,0-2.95-1.15-3.1-1.37-.36-.58-1.51-2.16-1.94-3.46-.58-1.15-1.66-2.95-2.09-4.97-.43-1.94-1.73-1.87-2.59-3.6-.72-1.58-2.38-3.74-2.59-5.26-.36-1.44-.43-2.3-1.22-3.53-1.22-1.15-.94-1.37-1.58-2.74-.72-1.51-2.52-2.81-2.81-4.46-.36-1.66-.94-2.45-1.8-3.96-.5-1.44-1.44-.07-2.23-2.3-.79-2.09-1.87-4.18-2.45-5.26-.43-.86-1.73-2.38-2.09-2.38-.22,0-.43,1.01-.43,1.8,0,2.66.5,5.33.5,8.42,0,1.58.07,3.24.07,5.62,0,1.3-.36,2.59-.36,4.39,0,3.6.65,4.54.65,6.91,0,2.16-.36,5.9-.36,8.28,0,1.15-.22,2.52-.22,3.02.07,1.15.43.86.58,1.3.79.14,3.02.14,3.6.14.94,0,1.44,1.01,1.44,1.87s-.07,1.08-.86,1.08c-.86,0-3.38.14-4.54.14s-1.66-.22-2.66-.22c-.65,0-1.44.07-2.16.07-1.22,0-2.52-.29-3.6-.29-.86,0-1.87.07-2.59.07-.94,0-2.02-.07-2.02-.5,0-.72.07-2.23.94-2.23.72,0,1.66-.07,2.59-.07.43,0,.86.07,1.3.14,0-.22-.07-.43-.07-.58,0-.79.14-1.08.29-1.66.07-.79.14-1.73.14-3.02,0-.72-.07-1.37-.07-2.74,0-2.23.29-4.54.36-6.26-.07-1.87-.29-4.61-.29-6.05,0-1.73.14-4.75.14-7.06,0-3.38-.43-6.77-.43-11.09,0-1.51.5-3.46.5-5.11,0-1.22-.36-2.45-.36-3.89,0-.29.07-.65.07-.94h-2.52c-1.01,0-2.23-.07-2.23-.5,0-1.44.14-2.38,1.66-2.38h3.31c1.01.07,2.02.14,3.1.14,1.51,0,3.17-.07,5.26-.07,1.87,0,4.97-.07,5.98-.07.79,0,3.17.14,3.17,1.51-.07.79-.14,1.58-1.01,1.58-.36,0-2.45.07-3.17.07.22.29.29.58.36.86.65,2.3,2.16,3.1,2.95,4.54,1.15,1.87,2.52,4.75,3.67,7.2.86,1.87,3.24,4.9,3.53,6.7.07,1.15,1.51,2.23,2.16,3.46.43.94,1.44,3.74,2.16,4.46.58.65,3.24,5.04,3.24,5.98,0,.79,1.3,1.94,1.73,2.95.72,2.23,1.51,3.1,1.8,3.1.36,0,.94-1.37,1.66-3.24.79-1.73,2.38-2.59,2.52-4.46.07-1.08,1.94-4.03,2.52-5.18,1.15-1.87,1.66-4.18,2.16-5.4s2.3-.86,2.59-2.95c.22-2.02.79-3.46,1.8-5.11,1.15-1.44,1.87-2.95,2.95-5.04.94-2.16,1.73-2.52,2.38-4.61.58-1.8,1.01-2.38,1.73-3.53-.5,0-2.23-.07-3.02-.07-1.01,0-1.08-1.58-1.08-2.38,0-.43,1.01-.58,2.02-.58,1.58,0,3.17-.14,4.97-.14,1.08,0,2.09.36,3.31.36.94-.07,1.94-.5,3.17-.5,1.37,0,5.76.07,6.77.07.65,0,1.01.29,1.01,1.15,0,.94-.58,2.02-1.73,2.02-.43,0-2.59,0-3.38.07.14,1.22.22,3.02.22,4.9,0,3.02-.14,6.26-.29,7.99-.07,1.22-.79,2.38-.79,3.96,0,1.37.94,2.45.94,4.1,0,1.22-.29,2.45-.29,3.89,0,1.22.58,2.23.58,3.38,0,1.08-.43,2.02-.43,3.53s.22,4.9.22,6.55c0,1.87-.29,3.31-.29,4.75,0,1.15.43,2.16.43,3.46,0,.58-.07,1.08-.14,1.8.86.07,3.82.14,4.25.14.72,0,.94.22.94,1.08s-.5,1.94-1.51,1.94c-1.15,0-6.48.22-7.7.22-1.08,0-3.53-.29-4.9-.29-.43,0-.86.14-1.58.14-.5,0-.86-.07-1.37-.07h-.5Z"/><path class="cls-1" d="m240.33,86.46c-.04.34-.06.87-.09,1.3-.04-1.23-.03-1.83.09-1.3Z"/><path class="cls-1" d="m239.96,103.7c-.03-4.45-.07-11.51.29-15.95.13,3.95.79,14.6-.29,15.95Z"/><path class="cls-1" d="m242.08,85.66l-.3,5.54c-.31-3.24.2-2.65.3-5.54Z"/><polygon class="cls-1" points="241.08 87.68 240.68 87.39 241.05 84.43 241.08 87.68"/><path class="cls-1" d="m40.09,7.36c.58.17.93.36.66.6l-.66-.6Z"/><path class="cls-1" d="m27.25,5.56c-1.15-.06-1.96-.09-2.65-.11.79-.03,1.45.01,2.65.11Z"/><path class="cls-1" d="m51.75,7.19l-2.28.06c.73-.06,1.53-.08,2.28-.06Z"/><path class="cls-1" d="m194.18,5.68c2.12.29,4.13.55,5.66.73-4.13.31-4.48-.35-5.66-.73Z"/><path class="cls-1" d="m1.45,41.82l.32.55c-.14.6-.28.9-.32-.55Z"/><path class="cls-1" d="m24.18.25c.06.18-.06.32-.3.42-.22-.03-.45-.05-.66-.08l.97-.34Z"/><path class="cls-1" d="m60.78,6.55s.09-.02.13-.04l1.85.2c-.99.06-1.62,0-1.98-.16Z"/><path class="cls-1" d="m1.01,59.83c-.18.8-.4,1.57-.7,2.24.15-1.74.46-2.55.7-2.24Z"/><path class="cls-1" d="m24.29,5.45s0,0-.03-.01c.1,0,.25,0,.34.01-.12,0-.2,0-.32,0Z"/><path class="cls-1" d="m42.72.6c-.98-.05-1.89-.1-2.94-.16,1.24-.08,2.29.02,2.94.16Z"/><path class="cls-1" d="m194.18,5.68c-.6-.08-1.19-.16-1.79-.24.85,0,1.37.1,1.79.24Z"/><path class="cls-1" d="m239.54,71.56c-.01-1.79.21-2.22.44-2.56-.1.99-.24,1.87-.44,2.56Z"/><path class="cls-1" d="m235.49,119.13h.72c-.3.03-.53.02-.72,0Z"/><path class="cls-1" d="m166.85,118.28c-.32-.07-.66-.15-.91-.25.59-.08.92.06.91.25Z"/><path class="cls-1" d="m103.62,126c4.48-.46,9.11.48,13.02.53l-1.33-.39,3.93.33-.04-.57c6.5.26,14.58-.32,16.96.58l-.76-.9,6.9.72-3.95-.61c7.75-.19,19.52.51,21.18.51l-.7-.34c1.27-.17,2.27.05,3.59.16l-1.02-.5c11.68.14,14.87-1,27.91-.47,3.55-.12-1.97-.16-2.02-.45,1.94-.4,6.5-.02,7.49.21-1.03-.79-6.53-.55-2.36-1.18,2.96.39-2.02-.73,3.19-.58l2.04,1.01c2.9-.18.58-.79,5.17-.69,5.24.44-6.41,1.15,2.02,1.3,4.23-.07,8.89-2.34,17.09-1.8,7.07-.53-3.72-1.58,6.06-1.32l-6.26-.66c1.62-.29.6-.79,4.83-.58,1.34.39,3.96.9,6.25.95-9.16-.77,8.03-1.15-.5-2.15l3.18.04c-.4-.04-.5-.14-.29-.21l4.22-.07c-2.6-.22-8.8-.31-5.92-1.06l6.12-.19c-1.63-.56.61-.79.25-1.25l-17.99-1.08c.71.34,3.3.56,2.33.9-4.8.3-3.92-.61-8.43-.14l1.99.45c-.36-.17-.99-.22,0-.28,1.58-.29,2.27.05,2.29.33-1.58.57-6.13.19-7.49-.21-5.84.07-1.2,1.02-2.49,1.2-3.02-.95-9.76.02-13.38-.42l2.32.62c-4.45.75-8.43.13-11.03-.09l1.01.51c-6.19-.1-9.26,1.61-13.97-.19l.65.34c-2.54.16-6.4.54-8.83,0-.06.21-.49.47-1.52.54-1.38-.69-4.01-.17-7.76-.04,2.48.18,1.69,1.08,4.31,1.3-5.78.92-5.3-1-10.15-.99-2.91.46,2.61.5,3.31.84-7.49-.49-15.39,2.08-20.12.28l3.22-.57c-2.98-.39-4.59-.38-4.23-.22.96-.06,1.28.11,1.62.28-8.99.93-14.07-1.32-23.15-.96.68.34,1.97.45,2.03.73-4.18.35-4.07-1.74-10.82-1.05l1.32.39c-2.25.23-3.92-.33-3.61-.44-.18,1.53-14.29-.07-19,1.92-3.31-.84-12.78-1.49-15.68-1.03-4.15.92,3.68,1.01,2.13,1.86-3.25,0-4.96-.84-9.8-.54-.08-.85,9.57-1.72.46-2.21l-1.28.46c.95-.06,2.24-.23,3.56-.12,2.64.5-1.58.57-2.19.8l-9.79-.26c-.71-.9,5.14-.69,5.74-.92-7.74.19-17.06,1.52-24.26.91l.68.34c-9.18-.77-5.36,1.65-12.66.2-3.86.24,1.39.96-4.44,1.03-1.65,0-.68-.34-.39-.45-1.66-.07-2.77-.07-3.33-.02-.63.04-1,.12-1.34.2-.65.15-1.24.26-3.18,0,.04-.35.09-.75.15-1.21-.28.57-.55,1.21-.83,1.89l.07.13-.18-.02c.17-2.16.4-4.23.64-6.02.24-1.97.48-3.94.72-5.87.44-3.86.75-7.59.55-10.97-.74.41-.67,4.61-1.23,6.29,1.33-9.22.17-22.11.88-30.62.63,2.55,1.46-4.03,1.98,1.42-.96,1.41-.33,3.97-.43,6.89,2.08-4.72-1.01-19.74.79-21.19l-.74-1.25c.11-1.31.67-4.62.9-2.34l-.48-9.4c-.56,3.3-1.84,10.26-1.04,12.44-.78,2.67-.52-3.85-1.42-1.48,1.23-6.29-.52-3.86-.25-10.38,1.07,2.95,1.45-6.48,1.96-6.19-.2-2.13.3-6.87.66-8.7.1-3.77-.76-12.4-.39-18.45-.33,2.29-.78,5.91-1.46,5.64.39-2.96.38-6.22-.41-6.78-1.45,10.52,1.82,3.39.88,12.92-.9,2.35-1.12,4.96-1.39,9.87-.52-2.23-.74-1.25-1.37-2.17,1.91-6.01.18-15.62,1.13-23.47.13-.77.3-1.27.48-1.56.18-.29.38-.45.57-.67.38-.43.73-1.05.87-2.81.15,0,.39.02.64.04l-.51.09c.16,1.24.33,2.33.49,3.27-.44-3.26.24-1.53.61-2.17.25.07.56.13.95.17-.38-.18-.82-.37-1.33-.55l-.07.06s0-.1,0-.13c.77-.05,1.38-.05,1.88.02.25.03.48.09.69.16.11.04.21.08.31.12.22.05.45.1.69.15-.24-.08-.54-.16-.72-.24-.11-.08-.24-.16-.37-.24-.27-.16-.58-.32-.93-.48.59-.06,1.1-.12,2.48-.09,1.14.03,2.04.14,2.07.42.5-.23.67-.42.67-.58.38.16,1.29.26,3.55.23-1.32-.11-2.28-.05-2.31-.33,8.61.23,2.01-1.03,7.35-.94-.84-.22.67-.5,2.59-.61-.13,1.5,10.44,1.7,13.24,2.53l-.03-.02,7.2.6c-1.46-.12.11-.53,2.21-.69h-.34c2.29-.23-2.72-1.63,4.14-1.19l3.61.44c-.65-.05-.03-.28.31-.4l3.72.41c5.68-1.4,10.73.79,17.42.1-1.93.12-4.87.01-3.61-.44,1.3-.17,3.25,0,4.26.22l-.34-.17,12.74.93c-1.03-.51-8.16-.54-4.98-1.12,1.88-.69,5.54.04,7.83.09-.29.4-4.51.75-.25.96.52-.2,4.58-.61,2.66-.89,4.37.41,10.7.65,14.61,1.35,1.24-.17-.71-.34-1.36-.39l-.31.11c-2.63-.22-.4-1.02-5.57-.61-.43-1.3,7.44-.36,11.97-.54l-7.22-.89c12.16-1.79,28.58.15,40.63.17-3.54.41-6.49.02-6.07,1.04,7.49.49,6.5.27,13.97.47l-.64-.05c3.86-.52,9.13.48,11.67-.43-1.67-.56-5.48.53-5.57-.61l9.42.09c-2.96-.67-9.42-.09-13.01-.25-2.59.06,5.21.16,3.98.9-8.79-.04-10.8-.76-15.12-1.83-2.64-.79,3.84-.8,5.48-.81,5.6,1.17,13.77,1.72,22.49,1.19l4.79-.86c4.32.78,2.48,2.31,10.28,2.12l-2.33-.62c1.71-.24,2.83-.32,3.66-.32-3.35-.47-6.97-.99-10-1.48,4.44-1.31,12.74.65,19.27.91-.34-.17-2.62-.22-3.3-.55,9.73-.31,19.92,1.25,27.43,1.45,3.18-.57-6.24-.38-4.69-1.23,3.95.33,8.41-.42,9.47.37-1.72-1.13,9.07-.08,1.52-1.14.64-.02,1.28-.04,1.92-.06.7-.01,1.4-.03,2.11-.04,1.42-.01,2.86-.02,4.31-.03,0,1.65,0,3.31,0,4.97-.02,1.56-.05,3.13-.07,4.7-.07,3.07-.17,6.15-.28,9.22-.26,6.15-.52,12.28-.76,18.18.34-.7.62-.7.85-.1-.04-4.87.25-12.03,1.02-14.73.59,3.2-.73,7.57-.39,8.49.27-1.64.25-4.88.81-4.94.66,4.17-.23,6.51-.32,9.44l-.29-1.59c-.72,9.15-1.94,5.06-1.58,14.77.7,3.52.56-.04,1.41-.1-.32,2.29.64,9.66-.25,12.05l-.1-5.88c-.22,4.12-.2,8.01-.48,10.86.18-.3.37-.53.44-1.41-.26,3.27-.17,7.47-.72,9.14l.91.92c-.41-1.95-.51-7.78-.01-8.77.8.56.33,6.46.41,9.04.19-11.39,1.61-11.54.97-21.18l-.27,1.63c-.72-6,.39-12.19.33-17.44.19,1.48.53,1.78.68,1.08-.38-5.81-.46-11.58-.49-17.55-.02-2.99-.04-6.02-.07-9.14-.03-1.56-.05-3.14-.08-4.74-.05-2.1-.1-4.23-.15-6.4l.32-2.35c-.98-.19-2.03-.37-3.17-.56l-.73.68c-2.27.07-3.47.05-4.17-.02-.61-.07-.63-.2-.69-.34-.06-.27.16-.57-1.93-.53,1.59,0,1.3.11,1.63.28-7.53-.77-4.18.63-8.41.42,2.01.73,8.14.26,6.26,1.23-7.51-.77-19.19-.34-20.29-1.98-13.94.66-31.23-.37-42.95-.51-1.6.29,1,.23.38.45-4.63-.95-15.55.66-15.63-.19-2.24.23-3.18.86-3.79,1.08-2.97-.41-6.54-.61-10.32-.72l2.76.23-.3.11-3.92-.33.15-.05c-9.41-.24-20.28-.04-28.81-.95,4.92.55-1.24,1.02,1.09,1.36-4.34-1.35-14.74-1.38-23.17-1.24.04.28-.62.51.37.73l-4.89-.55.65.34c-8.76.25-18.29-1.25-24.07-.61,3.58.16,3.59.44,3.95.9-6.27-.03-12.19-.05-19.52-.46.39.08.65.18.66.28-1.92.12-4.23-.22-6.19-.38l-.27.68c-3.75-.31-8.59.03-13.05-.51-.87.37-3.57.2-6.7-.03-1.56-.11-3.23-.24-4.83-.32l-.63-.03c-.33,0-.65-.01-.98-.02-.65,0-1.28-.02-1.91-.03-1.24,0-2.41,0-3.46.04-1.7-.08.25.11,1.36.32,1.12.21,1.46.44-2.77.42-.41-.24-1-.41-1.79-.52-.28,1.27-.23,4.02-.27,6.34-.02,1.17-.06,2.25-.19,3.11-.03.25-.07.28-.11.42-.04.1-.09.2-.14.28-.11.16-.24.27-.4.32l.58,4.83-.79,1.07c1.48,4.1-.66,6.25-.19,12.35.17-.32.23-.98.34-.66-.16,1.97-.27,6.52-.67,3,0,3.25-.36,14.32.48,9.35-.45.36-.07-4.19.1-6.16.68.26.41,5.15,1.15,6.36-.07.16-.19.8-.3,1.27l.42.7c-.75,6.11-.21,12.32-1.17,16.77.21.26.37,1.33.32,3.43l-.85.09.02,6.5,1.24-3.04c.25,7.13-1.16,12.15-1.37,18,1.42,1.51-.54,11.43.72,16.5l.38-4.58c-.13,4.89.02,7.72.14,10.47.06,1.38.11,2.73.12,4.31,0,.79,0,1.64-.03,2.57-.04,1.35-.08,2.82-.12,4.47-.03-.83-.06-1.61-.08-2.34-.01-.35-.02-.69-.03-1.02-.01-.2-.02-.4-.03-.59-.04-.76-.07-1.44-.1-2.08-.06-1.27-.11-2.35-.17-3.54-.13-2.39-.35-5.21-.93-10.85.23,4.36.16,8.26.04,12.01-.03.94-.06,1.86-.1,2.78l-.05,1.38-.02.69-.02,1.08c-.06,3.62-.1,7.3-.09,11,2.2,0,4.44-.02,6.71-.07,1.13-.03,2.27-.05,3.42-.08.56-.02,1.13-.04,1.69-.05.29-.02.59-.04.88-.07-.17-.08-.47-.16-.77-.23-.09-.04-.47-.07-.71-.11-.26-.04-.5-.08-.7-.11-.38-.07-.57-.14-.37-.21.1-.04.29-.08.61-.12.28-.03.67-.07,1.19-.12,2.02.73,9.76-.03,8.22.83,3.22-.29,3.78-1.09,5.74-1.2l10.79,1.05-.33-.17c18.35-1.97,34.25,1.32,52.66.48l-.36-.45,4.61.67c-3.61-.44,1.56-.57,1.85-.97l11.8.99c.27-.4-.43-1.3-3.32-1.12ZM1.45,63.61l.06-2.79c-.04-.56-.05-1.14.04-1.77l-.04,1.77c.11,1.44.47,2.49-.06,2.79ZM203.92,1.41c1.34.39-1.94.12-2.87.18l4.55.1c.63-.23-1.01-.22-1.67-.28ZM6.94,63.44l.57,1.56-.45,1.99-.12-3.55Zm.05,39.63l.33-3.95.11.33-.33,3.91-.11-.29Zm24.79,21.59c-.25-.03-.48-.06-.76-.11.25.02.51.06.76.11,3.05.41,4.26-.61,6.75.38-3.05.85-5-.03-6.75-.38ZM2.39,77.48c.11-1.32.16-1.97.11-2.94-.34.69-.84,3.34-.96,1.4.39-1.35.49-5.88,1.06-5.95-.61,3.94.98,6.73-.21,7.49ZM25.89,1.09l-.99.06,3.64.44-2.64-.5Zm16.94.58c2.02.73,7.2.6,10.78.76.93-.63-2.71-1.35-6.93-1.28-4.93-.55-1.86.97-3.85.52ZM3.49,107.91l.5-1,.06.95.33-3.92c.69,5.16-.6,8.78-.82,11.49.05-2.39,1.28-8.6-.08-7.52ZM78.94,2.03c3.61.44,10.12.99,9.53,1.5.23-.96-5-1.4-6.63-1.4-.94.06-1.63,0-2.9-.1Zm-.19,1.81c-5.24-.44-5.6-.89-9.59-1.79,5.18-.41,6.6.83,5.98,1.34,3.61.44,2.91-.18,4.84-.3l-1.23.74Zm-5.44-2.7l-2.13.13c-2.52.4-3.05,1.49-6.59.4l6.59-.4c.56-.09,1.26-.15,2.13-.13Zm44.04.05l-2.15-.33c2.12.03,2.37.18,2.15.33l1.79.28c-4.67.35-2.27.01-1.79-.28Zm-33.59.26l-6.19-.1c.36.45,4.22.22,6.19.1Zm32.21.59c-2.61.06-9.41.2-8.46.13.62-.51,6.81-.41,8.46-.13Zm124.8,14.8l.03-3.9.69,1.88-.72,2.02Zm-34-12.95l.96-.34,2.27.05-3.23.29Zm-42.19.05c.2-.15.09-.33-.26-.49-.64-.06-1.2-.15-1.47-.29.58,0,1.13.12,1.47.29,1.69.15,4.21.07,5.36-.14-.68-.34-3.28-.27-4.29-.5,3.86-.8,12.52,1.61,10.05-.71,1.63.28,7.22.89,5.29,1.29-4.42-.13-12.8.12-16.15.54-.2.12-.56.22-1.32.24.22-.09.73-.16,1.32-.24Zm-56.86.5c-1.6-.06-2.29-.13-2.6-.2-1.37-.17-2.41-.43-2.01-.75,3.33.28,1.2.54,2.01.75.84.1,1.74.18,2.6.2Zm-10.05.14l5.22.44-2.63-.5,7.87.94c-4.51.46-9.76-.26-10.46-.88Zm-1.84.44l-1.08-.55,1.65.56h-.57s.25.11.25.11l-8.79-.32,8.55.19ZM5.71,3.92s-.05.1.01.12c.42,1.13.71,1.21.92.92,1.15.34,2.89.48,4.46.61.67.07,1.82.14,2.6.23.82.09,1.46.21,1.78.39.18-.32,1.11-.73.92-1.05-.1-.16-.47-.3-1.36-.4-.44-.05-1.02-.09-1.75-.12-.73-.03-1.63-.04-2.61-.04.84-.08,1.61-.12,2.26-.13.64-.01,1.16,0,1.59.03.85.06,1.34.19,1.73.28.79.19,1.2.26,3.41-.54-3.57.12-7.79-.38-8.51-.43l4.23-.07c-.59-.3-1.29-.41-2.05-.41-.76,0-1.56.09-2.53.21-1.88.24-3.39.59-5.08.4Zm.18,45.32l-.04,5.51.16-5.22-.11-.3Zm64.12,71.42c-.39-.45,6.71-1.26,8.4-.42-3.57.12-7.48.08-8.4.42Zm58.47.13l-6.19-.38c1.19-1.02,5.53.04,8.44-.14,1.01.51-1.28.17-2.24.51Zm40.3,0l1.97.16-2.07-1.01.1.85Zm-2.71-1.35c1.24-.46-2.99-.67-3.99-.61l3.99.61Zm36.3-.89l-2.58.06,2.34.9.25-.96Zm-4.11,1.06c-.61-.65-.35-1.52-6.3-1.08-.25.68,1.37.67-.84,1.47,1.96.16,3.56-.12,4.54-.18-1.33-.11-2.91.18-3.27-.27,2.22-.26,4.49-.17,5.86.07.21.23.54.43,1.32.54-.02-.21-.52-.4-1.32-.54Zm-21.54.71c-.79.08-1.46.17-1.78.29l-.36-.17c.81-.29,1.51-.23,2.13-.11.86-.09,1.86-.17,2.89-.24.66-.57-3.41-.96-4.49-1.28,1.94.16,3.61.72,6.18.38-.34-.17-.02-.28-1.63-.28l3.55-.12c4.06.8.18,1.05-3.61,1.31-.12.13-.41.26-1.12.4-.61.08-1.17-.06-1.77-.16Zm28.51,1.28l-1.94-.16c-1-.22-.36-.45-.71-.62,2.28.05,5.25.44,2.66.78Zm-116.62.2c1.29-.17-1.69-.85-4.59-.67l1.54-.85c.07.56,5.9.49,6.55.55,1.03.79-1.24.45-3.5.97ZM5.26,68.44c1.07-1.06.43-8.48.71-10.12.24,3.86.49,12.63-.71,10.12Zm-.44-12.86c.01-2.03-.09-2.61.45-2.4.22-.98-.06-2.59.16-3.58.47,3.95-.38,3.7-.61,5.98,0,.53-.01,1.13-.05,1.88-.03-.82,0-1.39.05-1.88Zm14.62,66.74l2.7.79,4.21-.07-6.91-.72Zm45.29,1.41c-.35-.45,4.49-.46,5.5-.24-.31-.59-3.55-.52-6.14-.58-.33-.05-.87-.08-1.7-.08.51.04,1.07.06,1.7.08.97.14.29.44.29.65l-1.28.17,3.57.16-1.95-.17Zm79.65.64c2.89-.46,3.24-.29,5.18-.13-.62.23-3.22.29-5.18.13Zm-103.66-.12c4.87-.3-2.34-.9.86-1.19l-2.55.06c4.14-.63,2.95.67,5.87.49l-1.95.12c-1.54.57,2.99.39,3.35.84-2.27.23-7.51-.21-5.57-.32Zm108.23.5c4.82-.58,3.97.61,6.89.72-3.84.52-3.28-.56-6.89-.72Zm-77.54,1.23l-.31.11,3.91.33.31-.11-3.92-.33Z"/><path class="cls-1" d="m154.95,118.79c1.19-.07,1.98-.06,2.62-.02-.83.03-1.7.04-2.62.02Z"/><path class="cls-1" d="m8.87,43.76c-.15-.11-.23-.53-.29-1.09.09.07.18.34.29,1.09Z"/><path class="cls-1" d="m9.24,34.33c0-.12,0-.25,0-.36.01-.08.04-.2.05-.3l-.06.65Z"/><path class="cls-1" d="m238.78,68.71c-.72,2.03-.13-1.95-.14-3.57.01,1.63.53,2.25.14,3.57Z"/><path class="cls-1" d="m239.93,55.93c-.21.97-.35,2.34-.4,4.01-.03-1.05.04-2.2.4-4.01Z"/><path class="cls-1" d="m239.67,66.36c-.16-2.49-.2-4.66-.14-6.42.04,1.64.33,3.03.14,6.42Z"/><path class="cls-1" d="m239.55,21.5c-.44,2.01-.18,5.87-.18,5.87-.46-8.41-.84,1.7-1.17,2.4.13-5.24.69-5.27,1.35-8.27Z"/><path class="cls-1" d="m239.72,10.36c0,.86.03,1.69.1,2.33-.12-.81-.13-1.58-.1-2.33Z"/><path class="cls-1" d="m239.27,7.53c.04-1.22.17-2.18.33-3.06-.66-.2-1.11-.44-1.75-.65.92-.08,1.76-.11,2.48-.09-.02,1.3-.16,2.51-.3,3.6-.14,1.09-.28,2.04-.33,3.04-.02-2.03.02-3.98-.45-2.83Z"/><path class="cls-1" d="m153.12,7.26c.67.06,2.28.05,2.32.33h-4.88c-1.96-.15,1.58-.27,2.55-.33Z"/><path class="cls-1" d="m135.13,5.9c-3.9-.05-1.87.68-3.84.52l.22-.96,3.62.44Z"/><path class="cls-1" d="m137.29,1.02l1.15.1c-.43-.01-.86-.02-1.31-.03l.17-.06Z"/><path class="cls-1" d="m116.36,6.85l2.69,1.07c-3.27-.27-3.32-1.12-2.69-1.07Z"/><polygon class="cls-1" points="101.5 7.57 103.79 7.9 96.63 7.58 101.5 7.57"/><polygon class="cls-1" points="83.58 7.05 82.95 7.28 78.04 7.01 83.58 7.05"/><path class="cls-1" d="m8.02,119.24c-.06.14-.22.25-.53.34-.23-.24-.29-1.6-.31-3.04,0-.81-.02-1.63-.03-2.36-.01-.84-.04-1.56-.08-2.04.28.38.4.94.44,1.62.04.65,0,1.58-.05,2.1-.09,1.21-.2,2.86.28,3.48.1-.03.2-.06.29-.1Z"/><path class="cls-1" d="m148.15,119.2l-7.47-.21c5.79-.35,1.61,0,7.47.21Z"/></g></svg>